<?xml version="1.0" encoding="utf-8"?>
<!-- Generator: Adobe Illustrator 16.0.0, SVG Export Plug-In . SVG Version: 6.00 Build 0)  -->
<!DOCTYPE svg PUBLIC "-//W3C//DTD SVG 1.1//EN" "http://www.w3.org/Graphics/SVG/1.1/DTD/svg11.dtd">
<svg version="1.1" id="圖層_1" xmlns="http://www.w3.org/2000/svg" xmlns:xlink="http://www.w3.org/1999/xlink" x="0px" y="0px"
	 width="20px" height="20px" viewBox="0 0 20 20" enable-background="new 0 0 20 20" xml:space="preserve">
<path fill="#262626" d="M7.188,5.172C7.969,4.391,8.906,4,10,4s2.031,0.391,2.813,1.172s1.172,1.719,1.172,2.813
	c0,0.844-0.5,1.719-1.5,2.625c-1,0.875-1.5,1.672-1.5,2.391H9.016c0-0.719,0.156-1.328,0.469-1.828
	c0.313-0.531,0.656-0.906,1.031-1.125c0.375-0.25,0.719-0.547,1.031-0.891s0.469-0.734,0.469-1.172c0-0.531-0.203-0.984-0.609-1.359
	C11,6.219,10.531,6.016,10,6.016S9,6.219,8.594,6.625C8.188,7,7.984,7.453,7.984,7.984H6.016C6.016,6.891,6.406,5.953,7.188,5.172z
	 M4.328,15.672c1.594,1.563,3.484,2.344,5.672,2.344s4.063-0.781,5.625-2.344c1.594-1.594,2.391-3.484,2.391-5.672
	s-0.797-4.063-2.391-5.625C14.063,2.781,12.188,1.984,10,1.984S5.922,2.781,4.328,4.375C2.766,5.938,1.984,7.813,1.984,10
	S2.766,14.078,4.328,15.672z M2.922,2.969C4.891,1,7.25,0.016,10,0.016S15.094,1,17.031,2.969C19,4.906,19.984,7.25,19.984,10
	S19,15.109,17.031,17.078c-1.938,1.938-4.281,2.906-7.031,2.906s-5.109-0.969-7.078-2.906C0.984,15.109,0.016,12.75,0.016,10
	S0.984,4.906,2.922,2.969z M9.016,16v-2.016h1.969V16H9.016z"/>
</svg>
