<?xml version="1.0" encoding="utf-8"?>
<!-- Generator: Adobe Illustrator 16.0.0, SVG Export Plug-In . SVG Version: 6.00 Build 0)  -->
<!DOCTYPE svg PUBLIC "-//W3C//DTD SVG 1.1//EN" "http://www.w3.org/Graphics/SVG/1.1/DTD/svg11.dtd">
<svg version="1.1" id="圖層_1" xmlns="http://www.w3.org/2000/svg" xmlns:xlink="http://www.w3.org/1999/xlink" x="0px" y="0px"
	 width="20px" height="20px" viewBox="0 0 20 20" enable-background="new 0 0 20 20" xml:space="preserve">
<path fill="#D9D9D9" d="M14.359,12.016h3.375c0.188-0.875,0.281-1.547,0.281-2.016s-0.094-1.141-0.281-2.016h-3.375
	C14.453,8.641,14.5,9.313,14.5,10S14.453,11.359,14.359,12.016z M12.578,17.547c0.781-0.25,1.594-0.719,2.438-1.406
	c0.844-0.719,1.484-1.438,1.922-2.156h-2.953C13.672,15.234,13.203,16.422,12.578,17.547z M12.344,12.016
	c0.094-0.656,0.141-1.328,0.141-2.016s-0.047-1.359-0.141-2.016H7.656C7.563,8.641,7.516,9.313,7.516,10s0.047,1.359,0.141,2.016
	H12.344z M10,17.969c0.875-1.281,1.516-2.609,1.922-3.984H8.078C8.484,15.359,9.125,16.688,10,17.969z M6.016,6.016
	c0.375-1.344,0.844-2.531,1.406-3.563c-0.781,0.25-1.609,0.734-2.484,1.453C4.094,4.594,3.469,5.297,3.063,6.016H6.016z
	 M3.063,13.984c0.406,0.719,1.031,1.438,1.875,2.156c0.875,0.688,1.703,1.156,2.484,1.406c-0.625-1.125-1.094-2.313-1.406-3.563
	H3.063z M2.266,12.016h3.375C5.547,11.359,5.5,10.688,5.5,10s0.047-1.359,0.141-2.016H2.266C2.078,8.859,1.984,9.531,1.984,10
	S2.078,11.141,2.266,12.016z M10,2.031C9.125,3.313,8.484,4.641,8.078,6.016h3.844C11.516,4.641,10.875,3.313,10,2.031z
	 M16.938,6.016c-0.438-0.719-1.078-1.422-1.922-2.109c-0.844-0.719-1.656-1.203-2.438-1.453c0.563,1.031,1.031,2.219,1.406,3.563
	H16.938z M2.922,2.969C4.891,1,7.25,0.016,10,0.016S15.094,1,17.031,2.969C19,4.906,19.984,7.25,19.984,10S19,15.109,17.031,17.078
	c-1.938,1.938-4.281,2.906-7.031,2.906s-5.109-0.969-7.078-2.906C0.984,15.109,0.016,12.75,0.016,10S0.984,4.906,2.922,2.969z"/>
</svg>
