<?xml version="1.0" encoding="utf-8"?>
<!-- Generator: Adobe Illustrator 16.0.0, SVG Export Plug-In . SVG Version: 6.00 Build 0)  -->
<!DOCTYPE svg PUBLIC "-//W3C//DTD SVG 1.1//EN" "http://www.w3.org/Graphics/SVG/1.1/DTD/svg11.dtd">
<svg version="1.1" id="圖層_1" xmlns="http://www.w3.org/2000/svg" xmlns:xlink="http://www.w3.org/1999/xlink" x="0px" y="0px"
	 width="20px" height="19px" viewBox="0 0 20 19" enable-background="new 0 0 20 19" xml:space="preserve">
<path fill="#D9D9D9" d="M10,18.328l-1.453-1.313c-1.656-1.5-2.859-2.609-3.609-3.328c-0.75-0.72-1.594-1.609-2.531-2.672
	C1.5,9.953,0.875,9,0.531,8.156C0.188,7.281,0.016,6.391,0.016,5.484c0-1.531,0.516-2.828,1.547-3.891C2.625,0.531,3.938,0,5.5,0
	C7.313,0,8.813,0.703,10,2.109C11.188,0.703,12.688,0,14.5,0c1.563,0,2.859,0.531,3.891,1.594c1.063,1.063,1.594,2.359,1.594,3.891
	c0,1.219-0.405,2.484-1.219,3.797c-0.813,1.313-1.703,2.452-2.672,3.422c-0.938,0.969-2.484,2.422-4.641,4.358L10,18.328z"/>
</svg>
