<?xml version="1.0" encoding="utf-8"?>
<!-- Generator: Adobe Illustrator 16.0.0, SVG Export Plug-In . SVG Version: 6.00 Build 0)  -->
<!DOCTYPE svg PUBLIC "-//W3C//DTD SVG 1.1//EN" "http://www.w3.org/Graphics/SVG/1.1/DTD/svg11.dtd">
<svg version="1.1" id="圖層_1" xmlns="http://www.w3.org/2000/svg" xmlns:xlink="http://www.w3.org/1999/xlink" x="0px" y="0px"
	 width="18px" height="18px" viewBox="0 0 18 18" enable-background="new 0 0 18 18" xml:space="preserve">
<path fill="#262626" d="M3.984,12H6v2.016H3.984V12z M3.984,8.016H6v1.969H3.984V8.016z M3.984,3.984H6V6H3.984V3.984z M8.016,12h6
	v2.016h-6V12z M8.016,8.016h6v1.969h-6V8.016z M8.016,3.984h6V6h-6V3.984z M17.109,0c0.219,0,0.422,0.094,0.609,0.281
	C17.906,0.438,18,0.641,18,0.891v16.219c0,0.219-0.094,0.422-0.281,0.609S17.328,18,17.109,18H0.891
	c-0.25,0-0.469-0.094-0.656-0.281C0.078,17.531,0,17.328,0,17.109V0.891C0,0.297,0.297,0,0.891,0H17.109z M15.984,2.016H2.016
	v13.969h13.969V2.016z"/>
</svg>
