<?xml version="1.0" encoding="utf-8"?>
<!-- Generator: Adobe Illustrator 16.0.0, SVG Export Plug-In . SVG Version: 6.00 Build 0)  -->
<!DOCTYPE svg PUBLIC "-//W3C//DTD SVG 1.1//EN" "http://www.w3.org/Graphics/SVG/1.1/DTD/svg11.dtd">
<svg version="1.1" id="圖層_1" xmlns="http://www.w3.org/2000/svg" xmlns:xlink="http://www.w3.org/1999/xlink" x="0px" y="0px"
	 width="11px" height="11.25px" viewBox="0 0 11 11.25" enable-background="new 0 0 11 11.25" xml:space="preserve">
<path fill="#D9D9D9" d="M5.87,4.902C6.296,5.018,6.645,5.134,6.914,5.25c0.29,0.116,0.59,0.28,0.899,0.493
	C8.122,5.937,8.354,6.188,8.51,6.497c0.174,0.31,0.261,0.677,0.261,1.102c0,0.6-0.203,1.093-0.608,1.479
	c-0.388,0.368-0.91,0.609-1.566,0.725v1.334H4.739V9.804C4.101,9.668,3.569,9.397,3.144,8.991C2.738,8.585,2.515,8.063,2.477,7.425
	H3.84C3.917,8.295,4.526,8.73,5.667,8.73c0.598,0,1.025-0.106,1.276-0.319C7.214,8.18,7.35,7.918,7.35,7.628
	c0-0.696-0.619-1.199-1.856-1.508C3.56,5.676,2.592,4.824,2.592,3.568c0-0.561,0.204-1.035,0.609-1.421
	C3.608,1.74,4.12,1.47,4.739,1.334V0h1.857v1.363c0.638,0.155,1.121,0.444,1.449,0.87c0.349,0.425,0.532,0.919,0.552,1.479H7.233
	c-0.038-0.87-0.561-1.305-1.566-1.305c-0.503,0-0.91,0.106-1.218,0.318C4.159,2.939,4.014,3.22,4.014,3.568
	C4.014,4.128,4.632,4.573,5.87,4.902z"/>
</svg>
