<?xml version="1.0" encoding="utf-8"?>
<!-- Generator: Adobe Illustrator 16.0.0, SVG Export Plug-In . SVG Version: 6.00 Build 0)  -->
<!DOCTYPE svg PUBLIC "-//W3C//DTD SVG 1.1//EN" "http://www.w3.org/Graphics/SVG/1.1/DTD/svg11.dtd">
<svg version="1.1" id="圖層_1" xmlns="http://www.w3.org/2000/svg" xmlns:xlink="http://www.w3.org/1999/xlink" x="0px" y="0px"
	 width="11px" height="11.25px" viewBox="0 0 11 11.25" enable-background="new 0 0 11 11.25" xml:space="preserve">
<path fill="#262626" d="M5.87,4.902C6.296,5.018,6.645,5.134,6.914,5.25c0.29,0.116,0.59,0.28,0.898,0.493
	c0.31,0.194,0.541,0.444,0.697,0.754C8.684,6.807,8.771,7.174,8.771,7.6c0,0.6-0.203,1.092-0.608,1.479
	c-0.388,0.367-0.91,0.609-1.565,0.725v1.334H4.739V9.805c-0.638-0.137-1.17-0.408-1.595-0.813C2.738,8.585,2.515,8.063,2.477,7.425
	H3.84C3.917,8.295,4.526,8.73,5.667,8.73c0.599,0,1.024-0.106,1.276-0.319C7.214,8.18,7.35,7.918,7.35,7.628
	c0-0.696-0.619-1.198-1.855-1.508C3.56,5.676,2.592,4.824,2.592,3.568c0-0.561,0.204-1.035,0.609-1.421
	C3.608,1.74,4.12,1.47,4.739,1.334V0h1.857v1.363c0.639,0.155,1.121,0.444,1.449,0.87c0.35,0.425,0.532,0.919,0.553,1.479H7.232
	c-0.037-0.87-0.561-1.305-1.565-1.305c-0.503,0-0.91,0.106-1.218,0.318C4.159,2.939,4.014,3.22,4.014,3.568
	C4.014,4.128,4.632,4.573,5.87,4.902z"/>
</svg>
