<?xml version="1.0" encoding="utf-8"?>
<!-- Generator: Adobe Illustrator 16.0.0, SVG Export Plug-In . SVG Version: 6.00 Build 0)  -->
<!DOCTYPE svg PUBLIC "-//W3C//DTD SVG 1.1//EN" "http://www.w3.org/Graphics/SVG/1.1/DTD/svg11.dtd">
<svg version="1.1" id="圖層_1" xmlns="http://www.w3.org/2000/svg" xmlns:xlink="http://www.w3.org/1999/xlink" x="0px" y="0px"
	 width="18px" height="21px" viewBox="0 0 18 21" enable-background="new 0 0 18 21" xml:space="preserve">
<path fill="#D9D9D9" d="M15,18.984v-1.406c0-0.906-0.688-1.641-2.063-2.203C11.563,14.781,10.25,14.484,9,14.484
	s-2.563,0.297-3.938,0.891C3.688,15.938,3,16.672,3,17.578v1.406H15z M11.109,7.875C10.516,7.281,9.813,6.984,9,6.984
	S7.484,7.281,6.891,7.875S6,9.172,6,9.984s0.297,1.516,0.891,2.109S8.188,12.984,9,12.984s1.516-0.297,2.109-0.891
	S12,10.797,12,9.984S11.703,8.469,11.109,7.875z M9.703,3.281C9.516,3.094,9.281,3,9,3S8.484,3.094,8.297,3.281
	S8.016,3.703,8.016,3.984s0.094,0.531,0.281,0.75C8.484,4.922,8.719,5.016,9,5.016s0.516-0.094,0.703-0.281
	c0.188-0.219,0.281-0.469,0.281-0.75S9.891,3.469,9.703,3.281z M15.984,3c0.531,0,1,0.203,1.406,0.609S18,4.484,18,5.016v13.969
	c0,0.531-0.203,1-0.609,1.406S16.516,21,15.984,21H2.016c-0.531,0-1-0.203-1.406-0.609S0,19.516,0,18.984V5.016
	c0-0.531,0.203-1,0.609-1.406S1.484,3,2.016,3h4.172c0.219-0.594,0.578-1.078,1.078-1.453S8.344,0.984,9,0.984
	s1.234,0.188,1.734,0.563S11.594,2.406,11.813,3H15.984z"/>
</svg>
