<svg width="26" height="20" viewBox="0 0 26 20" fill="none" xmlns="http://www.w3.org/2000/svg">
<path d="M16.0156 15.4922C16.6797 15.9531 17.1133 16.2422 17.3164 16.3594C17.6211 16.5312 18.0312 16.7305 18.5469 16.957L17.0703 19.9336C16.3281 19.5742 15.5938 19.1445 14.8672 18.6445C14.1406 18.1523 13.6328 17.7812 13.3438 17.5312C12.1719 18.0391 10.7031 18.293 8.9375 18.293C6.32812 18.293 4.26953 17.6133 2.76172 16.2539C0.980469 14.6445 0.0898438 12.3828 0.0898438 9.46875C0.0898438 6.64062 0.867187 4.44531 2.42188 2.88281C3.98438 1.3125 6.16406 0.527344 8.96094 0.527344C11.8125 0.527344 14.0117 1.29297 15.5586 2.82422C17.1133 4.35547 17.8906 6.54688 17.8906 9.39844C17.8906 11.9375 17.2656 13.9688 16.0156 15.4922ZM11.9492 12.7734C12.3711 12.0156 12.582 10.8828 12.582 9.375C12.582 7.64062 12.2578 6.40234 11.6094 5.66016C10.9688 4.91797 10.082 4.54688 8.94922 4.54688C7.89453 4.54688 7.03906 4.92578 6.38281 5.68359C5.72656 6.44141 5.39844 7.625 5.39844 9.23438C5.39844 11.1094 5.71875 12.4258 6.35938 13.1836C7 13.9414 7.87891 14.3203 8.99609 14.3203C9.35547 14.3203 9.69531 14.2852 10.0156 14.2148C9.57031 13.7852 8.86719 13.3789 7.90625 12.9961L8.73828 11.0859C9.20703 11.1719 9.57031 11.2773 9.82812 11.4023C10.0938 11.5273 10.6055 11.8555 11.3633 12.3867C11.543 12.5117 11.7383 12.6406 11.9492 12.7734ZM20.4453 5.55469H25.543V10.3359H20.4453V5.55469ZM20.4453 13.2188H25.543V18H20.4453V13.2188Z" fill="#262626"/>
</svg>
