<svg width="80" height="80" viewBox="0 0 80 80" fill="none" xmlns="http://www.w3.org/2000/svg">
<path d="M17.3125 62.6875C23.6875 68.9375 31.25 72.0625 40 72.0625C48.75 72.0625 56.25 68.9375 62.5 62.6875C68.875 56.3125 72.0625 48.75 72.0625 40C72.0625 31.25 68.875 23.75 62.5 17.5C56.25 11.125 48.75 7.9375 40 7.9375C31.25 7.9375 23.6875 11.125 17.3125 17.5C11.0625 23.75 7.9375 31.25 7.9375 40C7.9375 48.75 11.0625 56.3125 17.3125 62.6875ZM11.6875 11.875C19.5625 4 29 0.0625 40 0.0625C51 0.0625 60.375 4 68.125 11.875C76 19.625 79.9375 29 79.9375 40C79.9375 51 76 60.4375 68.125 68.3125C60.375 76.0625 51 79.9375 40 79.9375C29 79.9375 19.5625 76.0625 11.6875 68.3125C3.9375 60.4375 0.0625 51 0.0625 40C0.0625 29 3.9375 19.625 11.6875 11.875ZM36.0625 19.9375H43.9375V43.9375H36.0625V19.9375ZM36.0625 52H43.9375V60.0625H36.0625V52Z" fill="#FFBA49"/>
</svg>
