<?xml version="1.0" encoding="utf-8"?>
<!-- Generator: Adobe Illustrator 16.0.0, SVG Export Plug-In . SVG Version: 6.00 Build 0)  -->
<!DOCTYPE svg PUBLIC "-//W3C//DTD SVG 1.1//EN" "http://www.w3.org/Graphics/SVG/1.1/DTD/svg11.dtd">
<svg version="1.1" id="圖層_1" xmlns="http://www.w3.org/2000/svg" xmlns:xlink="http://www.w3.org/1999/xlink" x="0px" y="0px"
	 width="24px" height="24px" viewBox="0 0 24 24" enable-background="new 0 0 24 24" xml:space="preserve">
<path fill="#595959" d="M12,24C5.383,24,0,18.617,0,12C0,5.383,5.383,0,12,0c6.617,0,12,5.383,12,12C24,18.617,18.617,24,12,24z
	 M12,2C6.486,2,2,6.486,2,12c0,5.514,4.486,10,10,10c5.514,0,10-4.486,10-10C22,6.486,17.514,2,12,2z"/>
<path fill="#595959" d="M11,7.514V17H8.838l-1.283-4.313V17H5.492V7.514h2.063l1.383,4.271V7.514H11z M17.281,11.955v1.904
	c0,0.699-0.035,1.213-0.105,1.541c-0.07,0.324-0.221,0.629-0.451,0.914c-0.23,0.281-0.527,0.49-0.891,0.627
	c-0.359,0.133-0.773,0.199-1.242,0.199c-0.523,0-0.967-0.057-1.33-0.17c-0.363-0.117-0.646-0.291-0.85-0.521
	c-0.199-0.234-0.342-0.516-0.428-0.844c-0.086-0.332-0.129-0.828-0.129-1.488v-1.992c0-0.723,0.078-1.287,0.234-1.693
	s0.438-0.732,0.844-0.979s0.926-0.369,1.559-0.369c0.531,0,0.986,0.08,1.365,0.24c0.383,0.156,0.678,0.361,0.885,0.615
	s0.348,0.516,0.422,0.785C17.242,10.994,17.281,11.404,17.281,11.955z M14.914,11.369c0-0.398-0.021-0.648-0.064-0.75
	c-0.043-0.105-0.135-0.158-0.275-0.158s-0.234,0.053-0.281,0.158c-0.047,0.102-0.07,0.352-0.07,0.75v3.51
	c0,0.367,0.023,0.607,0.07,0.721c0.047,0.109,0.139,0.164,0.275,0.164c0.141,0,0.232-0.051,0.275-0.152
	c0.047-0.102,0.07-0.32,0.07-0.656V11.369z M19.643,15.066V17h-1.787v-1.934H19.643z"/>
</svg>
