<?xml version="1.0" encoding="utf-8"?>
<!-- Generator: Adobe Illustrator 16.0.0, SVG Export Plug-In . SVG Version: 6.00 Build 0)  -->
<!DOCTYPE svg PUBLIC "-//W3C//DTD SVG 1.1//EN" "http://www.w3.org/Graphics/SVG/1.1/DTD/svg11.dtd">
<svg version="1.1" id="圖層_1" xmlns="http://www.w3.org/2000/svg" xmlns:xlink="http://www.w3.org/1999/xlink" x="0px" y="0px"
	 width="12.563px" height="14px" viewBox="0 0 12.563 14" enable-background="new 0 0 12.563 14" xml:space="preserve">
<path fill="#C4C4C4" d="M7.854,6.65c0.193,0.193,0.193,0.507,0,0.7l-6.517,6.505c-0.193,0.192-0.508,0.192-0.701,0
	c-0.193-0.193-0.193-0.508,0-0.7L6.803,7L0.637,0.845c-0.193-0.193-0.193-0.507,0-0.7C0.734,0.048,0.855,0,0.988,0
	c0.133,0,0.254,0.048,0.35,0.145L7.854,6.65z"/>
<path fill="#C4C4C4" d="M11.25,13.542c0,0.253-0.21,0.458-0.469,0.458l0,0c-0.259,0-0.469-0.205-0.469-0.458V0.615
	c0-0.253,0.21-0.458,0.469-0.458l0,0c0.259,0,0.469,0.205,0.469,0.458V13.542z"/>
</svg>
