<svg width="26" height="20" viewBox="0 0 26 20" fill="none" xmlns="http://www.w3.org/2000/svg">
<path d="M10.3203 13.6641C12.4714 12.7891 14.5312 12.3516 16.5 12.3516C18.4688 12.3516 20.5104 12.7891 22.625 13.6641C24.776 14.5026 25.8516 15.6146 25.8516 17V19.3516H7.14844V17C7.14844 15.6146 8.20573 14.5026 10.3203 13.6641ZM6 7.64844H9.5V10H6V13.5H3.64844V10H0.148438V7.64844H3.64844V4.14844H6V7.64844ZM19.7812 8.63281C18.8698 9.54427 17.776 10 16.5 10C15.224 10 14.1302 9.54427 13.2188 8.63281C12.3073 7.72135 11.8516 6.6276 11.8516 5.35156C11.8516 4.07552 12.3073 2.98177 13.2188 2.07031C14.1302 1.1224 15.224 0.648438 16.5 0.648438C17.776 0.648438 18.8698 1.1224 19.7812 2.07031C20.6927 2.98177 21.1484 4.07552 21.1484 5.35156C21.1484 6.6276 20.6927 7.72135 19.7812 8.63281Z" fill="#C4C4C4"/>
</svg>
