<svg width="19" height="20" viewBox="0 0 19 20" fill="none" xmlns="http://www.w3.org/2000/svg">
<path d="M17.5066 18.0006V8.96302C17.5066 8.49132 17.1409 8.10892 16.6897 8.10892H12.8104V5.64996C12.8104 5.41771 12.69 5.20366 12.4961 5.09056L9.34616 3.25411C9.3288 3.24396 9.31086 3.23506 9.29283 3.22686V2.17886H10.989C11.1243 2.17886 11.2341 2.06411 11.2341 1.9226V0.628302C11.2341 0.486801 11.1243 0.372051 10.989 0.372051H9.29283V0.256251C9.29283 0.11475 9.18316 0 9.04776 0C8.91236 0 8.80269 0.11475 8.80269 0.256251V3.22686C8.78466 3.23511 8.76673 3.24401 8.74932 3.25411L5.5994 5.09061C5.40532 5.20366 5.28503 5.41776 5.28503 5.65001V8.10892H1.40555C0.954349 8.10892 0.588661 8.49132 0.588661 8.96302V18.0005C0.241577 18.1647 0 18.5297 0 18.9537C0 19.5317 0.448048 20 1.00074 20H17.0945C17.6472 20 18.0952 19.5317 18.0952 18.9537C18.0952 18.5297 17.8537 18.1647 17.5066 18.0006ZM14.3489 11.0858C14.3489 10.8111 14.5619 10.5883 14.8249 10.5883H15.7148C15.9775 10.5883 16.1907 10.8111 16.1907 11.0858V12.0162C16.1907 12.2909 15.9775 12.5137 15.7148 12.5137H14.825C14.562 12.5137 14.3489 12.2909 14.3489 12.0162V11.0858H14.3489ZM14.3489 14.075C14.3489 13.8003 14.5619 13.5775 14.8249 13.5775H15.7148C15.9775 13.5775 16.1907 13.8003 16.1907 14.075V15.0053C16.1907 15.28 15.9775 15.5028 15.7148 15.5028H14.825C14.562 15.5028 14.3489 15.28 14.3489 15.0053V14.075H14.3489ZM11.4897 11.0858C11.4897 10.8111 11.7027 10.5883 11.9655 10.5883H12.8554C13.1181 10.5883 13.3312 10.8111 13.3312 11.0858V12.0162C13.3312 12.2909 13.1181 12.5137 12.8554 12.5137H11.9655C11.7027 12.5137 11.4897 12.2909 11.4897 12.0162V11.0858ZM11.4897 14.075C11.4897 13.8003 11.7027 13.5775 11.9655 13.5775H12.8554C13.1181 13.5775 13.3312 13.8003 13.3312 14.075V15.0053C13.3312 15.28 13.1181 15.5028 12.8554 15.5028H11.9655C11.7027 15.5028 11.4897 15.28 11.4897 15.0053V14.075ZM9.04762 5.65196C9.7921 5.65196 10.3956 6.28287 10.3956 7.06117C10.3956 7.83947 9.79215 8.47032 9.04762 8.47032C8.30314 8.47032 7.69965 7.83942 7.69965 7.06112C7.69965 6.28282 8.30314 5.65196 9.04762 5.65196ZM7.69778 13.7418C7.69778 13.4671 7.91081 13.2443 8.17381 13.2443H9.92147C10.1843 13.2443 10.3974 13.4671 10.3974 13.7418V17.6613C10.3974 17.751 10.3744 17.8351 10.3346 17.9078H7.76082C7.72098 17.8351 7.69793 17.751 7.69793 17.6613L7.69778 13.7418ZM4.7639 11.0858C4.7639 10.8111 4.97693 10.5883 5.23974 10.5883H6.12962C6.39243 10.5883 6.60545 10.8111 6.60545 11.0858V12.0162C6.60545 12.2909 6.39243 12.5137 6.12962 12.5137H5.23974C4.97693 12.5137 4.7639 12.2909 4.7639 12.0162V11.0858ZM4.7639 14.075C4.7639 13.8003 4.97693 13.5775 5.23974 13.5775H6.12962C6.39243 13.5775 6.60545 13.8003 6.60545 14.075V15.0053C6.60545 15.28 6.39243 15.5028 6.12962 15.5028H5.23974C4.97693 15.5028 4.7639 15.28 4.7639 15.0053V14.075ZM1.90444 11.0858C1.90444 10.8111 2.11747 10.5883 2.38042 10.5883H3.2702C3.53311 10.5883 3.74618 10.8111 3.74618 11.0858V12.0162C3.74618 12.2909 3.53311 12.5137 3.2702 12.5137H2.38047C2.11751 12.5137 1.90449 12.2909 1.90449 12.0162V11.0858H1.90444ZM1.90444 14.075C1.90444 13.8003 2.11747 13.5775 2.38042 13.5775H3.2702C3.53311 13.5775 3.74618 13.8003 3.74618 14.075V15.0053C3.74618 15.28 3.53311 15.5028 3.2702 15.5028H2.38047C2.11751 15.5028 1.90449 15.28 1.90449 15.0053V14.075H1.90444Z" fill="white"/>
</svg>
