<svg width="26" height="23" viewBox="0 0 26 23" fill="none" xmlns="http://www.w3.org/2000/svg">
<path d="M11.3594 17.1406C11.8333 17.6146 12.3802 17.8516 13 17.8516C13.6198 17.8516 14.1667 17.6146 14.6406 17.1406C15.1146 16.6667 15.3516 16.1198 15.3516 15.5C15.3516 14.8802 15.1146 14.3333 14.6406 13.8594C14.1667 13.3854 13.6198 13.1484 13 13.1484C12.3802 13.1484 11.8333 13.3854 11.3594 13.8594C10.8854 14.3333 10.6484 14.8802 10.6484 15.5C10.6484 16.1198 10.8854 16.6667 11.3594 17.1406ZM9.5 8.5H16.5L13 3.35938L9.5 8.5ZM19.0703 8.5H24.6484C24.9766 8.5 25.25 8.60938 25.4688 8.82812C25.724 9.04688 25.8516 9.32031 25.8516 9.64844C25.487 11.1068 24.9401 13.1667 24.2109 15.8281C23.4818 18.4531 23.026 20.112 22.8438 20.8047C22.5156 21.9349 21.7682 22.5 20.6016 22.5H5.39844C4.23177 22.5 3.48438 21.9349 3.15625 20.8047L0.203125 9.97656C0.166667 9.90365 0.148438 9.79427 0.148438 9.64844C0.148438 9.32031 0.257812 9.04688 0.476562 8.82812C0.731771 8.60938 1.02344 8.5 1.35156 8.5H6.92969L12.0156 0.84375C12.2344 0.515625 12.5625 0.351562 13 0.351562C13.474 0.351562 13.8021 0.515625 13.9844 0.84375L19.0703 8.5Z" fill="#D9D9D9"/>
</svg>
