<svg width="15" height="25" viewBox="0 0 15 25" fill="none" xmlns="http://www.w3.org/2000/svg">
<path d="M3.46617 21.6266C3.05555 21.6266 2.72266 21.9604 2.72266 22.3721V24.2545C2.72266 24.6662 3.05555 25 3.46617 25C3.87679 25 4.20968 24.6662 4.20968 24.2545V22.3721C4.20968 21.9604 3.87679 21.6266 3.46617 21.6266Z" fill="#595959"/>
<path d="M11.5336 21.6266C11.1229 21.6266 10.79 21.9604 10.79 22.3721V24.2545C10.79 24.6662 11.1229 25 11.5336 25C11.9442 25 12.2771 24.6662 12.2771 24.2545V22.3721C12.2771 21.9604 11.9442 21.6266 11.5336 21.6266Z" fill="#595959"/>
<path d="M8.7067 0H6.29325C5.18626 0 4.28564 0.903027 4.28564 2.01304V2.90742H5.77267V2.01304C5.77267 1.7252 6.00618 1.49106 6.2932 1.49106H8.70665C8.99372 1.49106 9.22722 1.7252 9.22722 2.01304V2.90742H10.7143V2.01304C10.7143 0.903027 9.81374 0 8.7067 0Z" fill="#595959"/>
<path d="M15 7.296V8.7667V20.2201C15 21.8178 13.7036 23.1176 12.1102 23.1176H2.88981C1.29633 23.1176 0 21.8178 0 20.2201V7.296C0 5.69824 1.29638 4.39844 2.88981 4.39844H12.1102C13.7037 4.39844 15 5.69829 15 7.296Z" fill="#595959"/>
</svg>
