<svg width="26" height="27" viewBox="0 0 26 27" fill="none" xmlns="http://www.w3.org/2000/svg">
<path d="M25.6047 24.4458L19.1952 17.8023C20.8432 15.8499 21.7462 13.3934 21.7462 10.8361C21.7462 4.86118 16.8684 0 10.8731 0C4.87776 0 0 4.86118 0 10.8361C0 16.8111 4.87776 21.6722 10.8731 21.6722C13.1238 21.6722 15.2686 20.9957 17.1024 19.7114L23.5605 26.4053C23.8305 26.6846 24.1936 26.8387 24.5826 26.8387C24.9509 26.8387 25.3002 26.6988 25.5654 26.4444C26.129 25.904 26.1469 25.0079 25.6047 24.4458ZM10.8731 2.82681C15.3046 2.82681 18.9097 6.41969 18.9097 10.8361C18.9097 15.2525 15.3046 18.8454 10.8731 18.8454C6.44159 18.8454 2.83646 15.2525 2.83646 10.8361C2.83646 6.41969 6.44159 2.82681 10.8731 2.82681Z" fill="white"/>
</svg>
