<?xml version="1.0" encoding="utf-8"?>
<!-- Generator: Adobe Illustrator 16.0.0, SVG Export Plug-In . SVG Version: 6.00 Build 0)  -->
<!DOCTYPE svg PUBLIC "-//W3C//DTD SVG 1.1//EN" "http://www.w3.org/Graphics/SVG/1.1/DTD/svg11.dtd">
<svg version="1.1" id="圖層_1" xmlns="http://www.w3.org/2000/svg" xmlns:xlink="http://www.w3.org/1999/xlink" x="0px" y="0px"
	 width="50px" height="55.834px" viewBox="0 0 50 55.834" enable-background="new 0 0 50 55.834" xml:space="preserve">
<path fill="#FCC229" d="M36.528,14.386h-5.217V3.327c0-1.486-1.27-2.698-2.855-2.698h-9.581c-1.588,0-2.856,1.212-2.856,2.698
	v11.059h-5.217c-2.066,0-3.74,1.567-3.74,3.502v32.478c0,1.934,1.676,3.503,3.74,3.503h2.723c0.283,1.031,1.284,1.798,2.476,1.798
	c1.193,0,2.192-0.767,2.476-1.798h10.38c0.283,1.031,1.285,1.798,2.479,1.798c1.191,0,2.193-0.767,2.477-1.798h2.721
	c2.064,0,3.74-1.569,3.74-3.503V17.888C40.269,15.953,38.595,14.386,36.528,14.386z M19.839,7.091C19.839,6.499,20.344,6,20.976,6
	h5.376c0.633,0,1.137,0.499,1.137,1.091v7.295h-7.651L19.839,7.091L19.839,7.091z M35.163,25.128h-23
	c-1.058,0-1.916-0.799-1.916-1.792c0-0.991,0.858-1.79,1.916-1.79h23c1.059,0,1.916,0.799,1.916,1.79
	C37.079,24.329,36.222,25.128,35.163,25.128z"/>
</svg>
