<?xml version="1.0" encoding="utf-8"?>
<!-- Generator: Adobe Illustrator 16.0.0, SVG Export Plug-In . SVG Version: 6.00 Build 0)  -->
<!DOCTYPE svg PUBLIC "-//W3C//DTD SVG 1.1//EN" "http://www.w3.org/Graphics/SVG/1.1/DTD/svg11.dtd">
<svg version="1.1" id="圖層_1" xmlns="http://www.w3.org/2000/svg" xmlns:xlink="http://www.w3.org/1999/xlink" x="0px" y="0px"
	 width="16px" height="15px" viewBox="0 0 16 15" enable-background="new 0 0 16 15" xml:space="preserve">
<path fill="#2FC66B" d="M10.799,4.171H9.592V1.438c0-0.368-0.293-0.667-0.66-0.667H6.714c-0.368,0-0.662,0.3-0.662,0.667v2.733
	H4.845c-0.479,0-0.866,0.387-0.866,0.866v8.027c0,0.479,0.388,0.865,0.866,0.865h0.63c0.065,0.256,0.297,0.445,0.573,0.445
	s0.508-0.189,0.573-0.445h2.402c0.066,0.256,0.299,0.445,0.574,0.445s0.507-0.189,0.573-0.445H10.8c0.479,0,0.866-0.387,0.866-0.865
	V5.037C11.665,4.558,11.278,4.171,10.799,4.171z M6.937,2.368c0-0.146,0.116-0.27,0.263-0.27h1.245c0.146,0,0.263,0.124,0.263,0.27
	v1.804h-1.77V2.368L6.937,2.368z M10.482,6.826H5.161c-0.245,0-0.443-0.197-0.443-0.442c0-0.245,0.198-0.442,0.443-0.442h5.322
	c0.246,0,0.444,0.197,0.444,0.442C10.927,6.629,10.729,6.826,10.482,6.826z"/>
</svg>
