<svg width="50" height="48" viewBox="0 0 50 48" fill="none" xmlns="http://www.w3.org/2000/svg">
<path d="M48.3736 43.2014V21.5113C48.3736 20.3792 47.3631 19.4614 46.1164 19.4614H35.397V13.5599C35.397 13.0025 35.0644 12.4888 34.5286 12.2174L25.8249 7.80986C25.7769 7.7855 25.7274 7.76414 25.6776 7.74446V5.22925H30.3644C30.7383 5.22925 31.0416 4.95385 31.0416 4.61425V1.50792C31.0416 1.16832 30.7383 0.892922 30.3644 0.892922H25.6776V0.615002C25.6776 0.275401 25.3745 0 25.0004 0C24.6263 0 24.3232 0.275401 24.3232 0.615002V7.74446C24.2734 7.76426 24.2239 7.78562 24.1758 7.80986L15.472 12.2175C14.9357 12.4888 14.6034 13.0026 14.6034 13.56V19.4614H3.88377C2.63702 19.4614 1.62656 20.3792 1.62656 21.5113V43.2013C0.667514 43.5954 0 44.4713 0 45.489C0 46.876 1.23803 48 2.76521 48H47.2348C48.762 48 50 46.876 50 45.489C49.9999 44.4713 49.3325 43.5954 48.3736 43.2014ZM39.6482 26.606C39.6482 25.9466 40.2369 25.412 40.9636 25.412H43.4224C44.1484 25.412 44.7373 25.9466 44.7373 26.606V28.8388C44.7373 29.4982 44.1484 30.0328 43.4224 30.0328H40.9638C40.2371 30.0328 39.6483 29.4982 39.6483 28.8388V26.606H39.6482ZM39.6482 33.7801C39.6482 33.1207 40.2369 32.5861 40.9636 32.5861H43.4224C44.1484 32.5861 44.7373 33.1207 44.7373 33.7801V36.0127C44.7373 36.6721 44.1484 37.2067 43.4224 37.2067H40.9638C40.2371 37.2067 39.6483 36.6721 39.6483 36.0127V33.7801H39.6482ZM31.7478 26.606C31.7478 25.9466 32.3363 25.412 33.0625 25.412H35.5215C36.2473 25.412 36.8363 25.9466 36.8363 26.606V28.8388C36.8363 29.4982 36.2473 30.0328 35.5215 30.0328H33.0625C32.3363 30.0328 31.7478 29.4982 31.7478 28.8388V26.606ZM31.7478 33.7801C31.7478 33.1207 32.3363 32.5861 33.0625 32.5861H35.5215C36.2473 32.5861 36.8363 33.1207 36.8363 33.7801V36.0127C36.8363 36.6721 36.2473 37.2067 35.5215 37.2067H33.0625C32.3363 37.2067 31.7478 36.6721 31.7478 36.0127V33.7801ZM25 13.5647C27.0571 13.5647 28.7248 15.0789 28.7248 16.9468C28.7248 18.8147 27.0573 20.3288 25 20.3288C22.9429 20.3288 21.2753 18.8146 21.2753 16.9467C21.2753 15.0788 22.9429 13.5647 25 13.5647ZM21.2702 32.9804C21.2702 32.321 21.8588 31.7864 22.5855 31.7864H27.4146C28.1409 31.7864 28.7295 32.321 28.7295 32.9804V42.3872C28.7295 42.6025 28.6662 42.8042 28.5562 42.9787H21.4444C21.3343 42.8042 21.2706 42.6025 21.2706 42.3872L21.2702 32.9804ZM13.1634 26.606C13.1634 25.9466 13.752 25.412 14.4782 25.412H16.9371C17.6633 25.412 18.2519 25.9466 18.2519 26.606V28.8388C18.2519 29.4982 17.6633 30.0328 16.9371 30.0328H14.4782C13.752 30.0328 13.1634 29.4982 13.1634 28.8388V26.606ZM13.1634 33.7801C13.1634 33.1207 13.752 32.5861 14.4782 32.5861H16.9371C17.6633 32.5861 18.2519 33.1207 18.2519 33.7801V36.0127C18.2519 36.6721 17.6633 37.2067 16.9371 37.2067H14.4782C13.752 37.2067 13.1634 36.6721 13.1634 36.0127V33.7801ZM5.26227 26.606C5.26227 25.9466 5.85089 25.412 6.57748 25.412H9.03609C9.76254 25.412 10.3513 25.9466 10.3513 26.606V28.8388C10.3513 29.4982 9.76254 30.0328 9.03609 30.0328H6.57761C5.85102 30.0328 5.26241 29.4982 5.26241 28.8388V26.606H5.26227ZM5.26227 33.7801C5.26227 33.1207 5.85089 32.5861 6.57748 32.5861H9.03609C9.76254 32.5861 10.3513 33.1207 10.3513 33.7801V36.0127C10.3513 36.6721 9.76254 37.2067 9.03609 37.2067H6.57761C5.85102 37.2067 5.26241 36.6721 5.26241 36.0127V33.7801H5.26227Z" fill="#FCC229"/>
</svg>
