<?xml version="1.0" encoding="utf-8"?>
<!-- Generator: Adobe Illustrator 16.0.0, SVG Export Plug-In . SVG Version: 6.00 Build 0)  -->
<!DOCTYPE svg PUBLIC "-//W3C//DTD SVG 1.1//EN" "http://www.w3.org/Graphics/SVG/1.1/DTD/svg11.dtd">
<svg version="1.1" id="圖層_1" xmlns="http://www.w3.org/2000/svg" xmlns:xlink="http://www.w3.org/1999/xlink" x="0px" y="0px"
	 width="1300.5px" height="725px" viewBox="0 0 1300.5 725" enable-background="new 0 0 1300.5 725" xml:space="preserve">
<g id="圖層_2">
	<g>
		<rect x="424.536" y="89.74" fill-opacity="0" width="375.165" height="375.164"/>
		<path fill="#EEEEEE" d="M612.105,464.904c103.593,0,187.568-83.983,187.568-187.581c0-103.599-83.976-187.583-187.568-187.583
			s-187.57,83.984-187.57,187.583C424.536,380.921,508.514,464.904,612.105,464.904z"/>
		<rect x="424.947" y="101.882" fill-opacity="0" width="374.752" height="334.457"/>
		<path fill="#FFFFFF" d="M520.951,434.729c-0.035,0.068-0.083,0.116-0.118,0.187c0.282,0.07,0.552,0.166,0.833,0.227
			L520.951,434.729z"/>
		<path fill="#FFFFFF" d="M509.15,170.346l-0.375-0.763c3.136-0.469,3.346-2.677,5.729-3.487c2.711-0.893,1.783,0.083,4.449,0
			c2.161-0.093,3.476,1.479,5.941,0.329c-0.598,1.057-1.574,1.784-2.548,2.501c-2.031,1.444-4.108,2.923-6.528,3.487
			C513.401,172.965,510.56,172.378,509.15,170.346z"/>
		<path fill="#FFFFFF" d="M546.675,337.545c-0.05,1.654-1.023,3.1-1.867,4.497c-3.77,6.151-6.059,13.278-6.564,20.5
			c-0.504,6.916-0.198,15.441-6.222,18.846c-3.439,1.912-8.277,1.573-10.567,4.801c-0.716,0.977-1.058,2.207-1.399,3.358
			c-1.479,5.389-2.97,10.78-4.449,16.167c-1.914-0.165-3.862-0.374-5.762-0.586c2.252,0.716,3.814,3.769,2.463,5.858
			c-2.16-1.141-5.001,0.211-6.197,2.382c-1.141,2.16-0.977,4.794-0.343,7.176c1.961,7.046,7.984,12.727,15.075,14.419
			c-1.233,2.335-5.001,1.315-7.303-0.246c-16.426-11.107-28.823-28.027-34.481-47.037c-1.998-6.702-3.277-13.833-7.186-19.597
			c-3.264-4.871-8.195-8.443-11.461-13.314c-4.578-6.997-5.436-16.071-10.743-22.473c-2.97-3.653-7.563-8.138-4.932-12.049
			c1.057-1.608,3.312-3.133,2.419-4.837c-0.294-0.555-0.892-0.895-1.362-1.362c-1.783-1.913-0.552-4.922,0.34-7.387
			c1.481-4.285,1.481-8.863,0.846-13.442c-4.463-3.994-7.984-8.947-10.192-14.513c-1.315-3.395-3.065-7.632-6.705-7.68
			c-0.939-2.63-1.911-5.261-2.852-7.89c-0.34,0.938-1.268,1.524-2.288,1.655c2.819-42.986,20.146-81.991,47.116-112.214
			c0.599-0.259,1.186-0.599,1.785-0.94c6.397-3.733,11.493-9.334,17.681-13.409c1.268-0.844,2.71-1.655,4.286-1.49
			c1.526,0.128,2.971,1.69,2.417,3.134c-0.211,0.6-0.716,1.07-1.233,1.445c-7.244,6.165-15.18,11.554-23.622,16.015
			c-1.01,0.505-2.077,1.104-2.535,2.125c-0.859,1.737,0.586,3.897,2.419,4.532c1.818,0.634,3.862,0.259,5.727-0.165
			c-1.572,2.243-2.042,5.26-1.233,7.891c1.738,0.164,2.289-2.208,2.806-3.864c2.113-6.575,12.596-9.252,11.916-16.178
			c2.842,1.479,5.731-1.832,7.467-4.544c1.74-2.76,5.601-5.471,7.728-3.053c0.118,1.35,0.28,2.711,0.41,4.075
			c3.734-0.94,7.515-1.915,11.249-2.854c-2.125,1.491-2.841,4.673-1.621,6.963c1.235,2.29,4.287,3.439,6.703,2.501
			c-0.035,1.995-1.818,3.522-3.439,4.708c-4.108,3.1-8.524,6.283-13.314,7.808l1.104,2.289c-0.118,0.046-0.247,0.094-0.376,0.094
			c-3.053,0.293-6.282-1.902-9.545-1.479c-1.997,0.258-4.449,0.258-5.601,2.29c-0.162,0.258-0.88,3.816-0.375,3.521
			c1.783-1.022,3.556-2.042,5.306-3.052c0.541,1.444,0.67,3.052,0.377,4.626c2.16-0.212,4.414,0.246,6.328,1.397
			c-1.997,4.625-7.127,7.726-12.174,7.339c-0.049-1.527-0.13-3.054-0.178-4.58c-4.156-0.341-7.55,3.229-9.626,6.799
			c-2.115,3.604-3.721,7.727-7.208,10.016c-2.115,1.443-4.71,1.995-6.997,3.181c-2.243,1.233-4.32,3.569-3.851,6.07
			c0.21,1.187,0.974,2.291,0.938,3.522c-0.129,2.29-2.794,3.358-4.58,4.838c-3.053,2.548-3.814,7.221-7.08,9.463
			c-2.372,1.655-5.519,1.62-8.277,2.467c-2.757,0.845-5.516,3.604-4.402,6.28c-1.362,0.471-3.018-0.551-3.146-1.995
			c-4.872,9.593-8.088,20.031-9.404,30.728c2.419,1.691,4.872-2.173,5.341-5.096c0.504-2.923,3.053-6.752,5.426-5.014
			c-0.551,4.204-1.105,8.359-1.643,12.563c-0.129,0.81-0.211,1.655,0.175,2.372c0.469,0.893,1.479,1.268,2.255,1.901
			c2.158,1.866,1.864,5.179,1.993,8.02c0.129,3.476,1.28,6.868,3.101,9.841c-0.175-0.6-0.293-1.187-0.422-1.784
			c3.311,0.422,6.75-0.647,9.252-2.854c1.314-1.187,2.418-2.712,4.074-3.312c1.703-0.635,3.568-0.178,5.306,0.293
			c5.388,1.479,11.119,3.134,14.723,7.374c1.82,2.16,2.971,4.885,5.143,6.656c4.919,4.157,13.243,2.326,17.74,6.951
			c3.604,3.734,2.935,9.757,1.961,14.889c-2.466-1.351-5.765,2.042-4.321,4.463c1.315-1.445,2.841-2.972,4.754-2.972
			c1.95-0.045,3.652,2.63,2.208,3.864c3.394-4.334,11.706-2.547,13.02,2.84c4.756,0.343,9.545,0.671,14.302,1.059
			C532.362,330.125,546.967,330.533,546.675,337.545z"/>
		<path fill="#FFFFFF" d="M517.758,141.238c-1.832,0.904-4.356-0.118-5.039-2.042c-0.692-1.926,0.611-4.309,2.607-4.767
			c1.254-0.294,3.004-0.152,3.393-1.386c0.118-0.375,0.048-0.786,0.048-1.174c-0.048-2.324,2.031-4.25,4.274-4.837
			c2.241-0.575,4.613-0.129,6.891,0.316c0.811,1.679,1.045,3.627,0.659,5.448c-1.564,0.071-3.124,0.129-4.686,0.2
			c0.142,2.595-0.117,5.858-2.523,6.822c-2.161,0.856-4.979-0.739-6.774,0.716"/>
		<path fill="#FFFFFF" d="M542.071,115.325c4.261-2.043,7.865-5.26,12.07-7.42c7.231-3.71,15.673-4.039,23.798-4.298
			c18.491-0.576,36.982-1.15,55.473-1.726c-4.286,2.348-8.57,4.708-12.869,7.056c-3.497,1.927-7.478,3.899-11.316,2.806
			c-0.083,3.089,2.725,5.953,5.822,5.931c-7.595,4.695-18.138-0.106-26.157,3.839c-3.357,1.655-6.07,4.778-9.768,5.365
			c-2.136,0.341-4.356-0.234-6.481,0.236c-3.557,0.775-5.799,4.145-8.43,6.657c-3.028,2.901-7.478,4.884-11.435,3.5
			c-3.956-1.385-6.021-7.268-2.854-10.016c1.562-1.35,3.793-1.572,5.637-2.523c1.844-0.939,3.298-3.464,1.912-5.002
			c-0.598-0.67-1.585-0.927-2.136-1.644c-0.599-0.776-0.541-1.878-1.033-2.724c-1.878-3.299-7.104,1.139-10.662-0.188"/>
		<path fill="#FFFFFF" d="M598.228,130.931c2.499-0.576,4.672-2.056,7.009-3.136c2.336-1.08,5.119-1.715,7.407-0.575
			c0.682,1.703-1.278,3.252-3.004,3.863c-3.312,1.162-6.904,1.48-10.366,0.903"/>
		<path fill="#FFFFFF" d="M749.411,149.587c-0.68,0.083-1.396,0.047-2.124-0.129c-3.179-0.681-5.598-3.135-8.321-4.919
			c-6.281-4.157-14.854-4.696-21.638-1.303c1.607-2.337,2.417-5.225,2.242-8.067l-0.975,0.341
			c-11.122-6.446-24.151-13.139-36.28-8.805c-2.805,1.021-5.341,2.548-8.182,3.522c-3.018,1.057-6.365,1.492-8.948,3.358
			c-2.628,1.867-4.028,5.988-1.773,8.23c1.914,1.915,4.968,1.397,7.644,1.656c2.629,0.258,5.646,2.876,4.206,5.132
			c-11.626,5.436-23.283,10.918-34.907,16.402c5.342,1.737,8.879,7.795,7.728,13.314c-3.91,0.682-7.68-1.69-11.624-1.949
			c-5.73-0.293-11.202,4.756-11.317,10.485c-0.166,5.729,5.094,11.025,10.824,10.943c4.284-0.047,8.488-2.631,12.645-1.538
			c0.164-3.91,2.842-7.221,5.587-10.016c5.345-5.354,12.977-10.192,20.113-7.562c2.337,0.845,4.334,2.419,6.282,3.981
			c4.283,3.393,8.57,6.821,12.865,10.262c1.363-1.397,2.715-2.807,4.074-4.155c2.337,2.466,4.676,4.92,7.047,7.419
			c1.187-0.81,2.417-1.572,3.604-2.383c0.846,2.207,1.737,4.367,2.592,6.575c0.342-2.418,0.636-4.791,0.931-7.174
			c2.804,0.082,5.773,0.164,8.312-1.104c2.55-1.233,4.415-4.285,3.348-6.915c-0.556-1.397-1.867-2.501-2.124-3.992
			c-0.553-2.971,3.686-5.002,6.445-3.651c2.709,1.316,4.074,4.414,5.222,7.257c0.634-2.889,1.224-5.731,1.867-8.618
			c2.653,6.974,6.48,13.503,11.235,19.232c-8.701-1.656-17.869-0.704-26.005,2.641c2.595,3.653,7.046,5.813,11.505,5.638
			c1.996-0.048,4.203-0.506,5.73,0.763c1.149,0.976,1.443,2.548,1.653,3.991c0.684,4.074,1.363,8.104,1.999,12.131
			c-4.592-3.771-11.201-3.348-17.189-3.465c-5.986-0.164-12.984-1.82-15.193-7.373c-2.369,2.677-3.428,6.492-2.745,10.062
			c-6.198-1.479-13.325-3.852-15.109-9.969c-4.837,1.785-10.861-1.304-12.174-6.271c-0.471-1.736-0.6-3.862-2.125-4.788
			c-0.928-0.553-2.126-0.47-3.229-0.342c-9.204,1.068-18.376,2.091-27.531,3.158c-5.002,0.6-10.18,1.198-14.594,3.651
			c-4.417,2.42-7.925,7.175-7.42,12.188c-8.444,5.014-15.605,12.27-20.442,20.806c-1.525,2.631-2.841,5.647-2.242,8.618
			c0.423,2.289,1.949,4.239,2.418,6.492c0.812,3.864-1.397,7.597-2.325,11.414c-2.629,10.86,5.612,21.087,13.255,29.306
			c3.604,3.817,7.774,7.975,13.033,8.185c3.265,0.13,6.364-1.313,9.418-2.513c8.732-3.439,18.243-5.014,27.613-4.638
			c-2.125,1.656,0.081,5.261,2.724,5.813c2.628,0.552,5.468-0.306,8.019,0.587c5.813,2.077,5.014,10.603,2.383,16.168
			c1.315-0.259,2.678-0.517,4.026-0.765c-0.715,1.866-1.444,3.734-2.159,5.555c7.974,1.009,10.989,11.494,9.134,19.339
			c-1.819,7.854-6.479,15.063-6.608,23.129c-0.033,4.415,1.315,8.699,2.677,12.893c3.404,10.648,6.801,21.3,10.203,31.984
			c9.511,1.139,14.971-10.956,23.799-14.735c3.312-1.446,7.208-1.738,9.802-4.204c2.501-2.371,1.69-7.938-1.525-7.938
			c4.366-0.47,8.1-4.463,8.229-8.877c0.049-1.232-0.13-2.464,0.035-3.686c0.293-1.737,1.4-3.264,2.452-4.756
			c6.74-9.675,11.108-20.76,15.474-31.704c1.142-2.935,2.292-5.812,3.431-8.747c4.32-10.908,8.606-21.77,12.928-32.675
			c1.69-4.285,3.392-8.524,5.085-12.821c-2.338,3.863-8.444,3.359-11.932,0.47c-3.521-2.877-5.352-7.256-8.11-10.859
			c-2.335-3.101-5.482-5.85-6.586-9.631c-0.634-2.16-0.518-4.496-0.892-6.75c-0.86-4.884-4.076-8.947-6.283-13.362
			c-2.205-4.414-3.356-10.133-0.258-14.008c8.923,15.57,17.037,31.596,24.372,48.022c0.81-2.548,2.677-4.755,5.05-5.987
			c1.739-0.938,3.688-1.315,5.519-2.078c4.836-2.126,8.183-7.257,8.183-12.516c-0.047-5.262-3.395-10.393-8.276-12.471
			c-2.417-1.021-5.177-1.35-7.468-2.759c-2.287-1.351-3.944-4.451-2.499-6.705c1.349-2.125,4.626-2.077,6.868-0.893
			c2.255,1.233,3.91,3.313,6.021,4.709c1.527,1.021,3.312,1.691,4.966,2.631c8.958,5.131,11.168,16.802,13.045,26.981
			c1.024,5.471,2.173,10.906,3.534,16.25c0.05-1.151,0.036-2.336,0.036-3.476C799.65,227.891,780.572,183.05,749.411,149.587z
			 M766.59,211.229c-1.232-0.08-2.373-0.891-3.358-1.654c-1.608-1.268-3.229-2.76-3.698-4.756c-0.552-2.371,0.586-5.096-0.684-7.209
			c-0.597-1.021-1.655-1.655-2.545-2.371c-2.337-1.866-4.04-4.544-4.674-7.422c-0.55-2.547,0.248-5.94,2.843-6.362
			c1.231-0.212,2.583,0.47,3.134,1.608l-1.739,0.939c2.925,0.341,4.287,4.756,2.044,6.658c-0.294,0.293-0.681,0.551-0.681,0.975
			c0,0.258,0.166,0.504,0.387,0.681c1.818,1.995,4.544,2.712,6.915,3.979c2.372,1.233,4.709,3.522,4.331,6.153
			c-0.761,0.293-1.477,0.552-2.241,0.845c-0.813,0.811-0.165,2.254,0.682,3.053c0.846,0.799,1.951,1.608,1.997,2.794
			C769.303,210.419,767.858,211.312,766.59,211.229z"/>
		<path fill="#FFFFFF" d="M767.812,341.772l-3.065,2.171c1.066,3.758-1.068,8.159-4.696,9.627c-1.914,0.775-4.461,1.113-5.107,3.078
			c-0.541,1.665,0.752,3.358,0.927,5.094c0.282,2.889-2.416,5.052-4.367,7.195c-1.948,2.151-2.98,6.188-0.387,7.481
			c0.599,0.306,1.293,0.363,1.96,0.423c2.819,0.244,5.904,0.327,8.205-1.316c6.601-4.71,0.329-17.485,6.848-22.318
			c0.927-0.683,2.09-1.176,2.594-2.209C772.26,347.959,766.59,344.94,767.812,341.772z"/>
	</g>
</g>
<g id="圖層_1_1_">
	<rect fill-opacity="0" width="1300.5" height="601.446"/>
	<path fill="none" stroke="#C4C4C4" stroke-width="2.8869" stroke-dasharray="2.8869,4.8115" d="M0,385.044
		c89.516-12.89,102.245-87.917,140.813-107.721c27.66-38.332,104.936-51.853,125.222-45.262
		c31.18,10.128,76.944,28.547,76.944,61.693c0,33.145,62.359,11.968,66.382-9.207c4.024-21.176-26.15-63.529-59.342-80.102
		c-36.03-17.989-40.232-58.925-25.145-98.515C339.45,67.68,383.21,52.53,409.361,71.865
		c26.151,19.334,111.644,150.995,91.528,176.773c-20.116,25.78-63.365,69.974-56.324,101.278
		c7.041,31.303,41.931,52.48,82.475,52.48c35.203,0,61.354-46.956,59.342-78.261c-2.011-31.303-21.122-67.211,31.181-83.782
		c52.301-16.573,91.526,19.333,109.632,44.192c18.103,24.857,19.11,198.872,47.272,239.382
		c28.162,40.511,107.621,39.588,104.603,13.81c-3.017-25.781-24.138-68.132-7.04-97.595c17.1-29.463,84.488-50.639,101.586-27.621
		c17.1,23.018,83.48,39.591,137.794-10.127"/>
	<path fill="none" stroke="#C4C4C4" stroke-width="3.0174" stroke-dasharray="3.0174,5.029" d="M586.381,78.677
		c31.181-29.168,65.378-51.296,85.494-22.127c20.116,29.167-6.034,62.359,24.139,74.429c30.175,12.069,51.297-5.029,61.354-21.122
		c10.06-16.093,10.06-72.417,35.203-66.382c25.146,6.035,55.32,45.261,36.21,66.382c-19.11,21.122-36.21,54.313-36.21,75.435
		c0,21.123,22.129,83.482,51.297,89.518c29.167,6.035,48.277,19.108,66.383,0c18.104-19.11,76.44-93.54,63.365-118.685"/>
	<path fill="none" stroke="#C4C4C4" stroke-width="3.0174" stroke-dasharray="3.0174,5.029" d="M854.932,4.248
		c6.033,28.163-2.014,56.325,46.265,74.429c48.28,18.104,59.343,69.4,86.5,41.238c27.156-28.162,35.202-61.354,36.208-85.493
		c1.008-24.139,20.116-43.25,35.204-30.174c15.087,13.076,30.174,26.151,30.174,50.29s-16.093,60.348-23.133,85.493
		c-7.041,25.145-8.048,40.232,17.098,60.348s40.281,49.921,81.47,34.197c55.318-21.121,74.43-100.581,135.783-72.417"/>
</g>
</svg>
