<svg width="57" height="40" viewBox="0 0 57 40" fill="none" xmlns="http://www.w3.org/2000/svg">
<rect width="56.8889" height="40" fill="black" fill-opacity="0"/>
<path fill-rule="evenodd" clip-rule="evenodd" d="M39.6192 0C43.1747 0 46.053 2.88748 46.053 6.45436C46.053 7.30361 45.8837 8.15286 45.5451 8.9172C44.6139 11.2951 42.1588 14.5223 40.3811 16.5605C39.8731 17.155 39.3652 17.155 38.8573 16.5605C38.0953 15.7113 37.3335 14.6921 36.4869 13.5881C36.4022 13.5032 36.4022 13.5032 36.3176 13.4183C37.0795 12.2293 37.8414 10.7856 37.8414 9.34182C37.8414 6.87898 35.979 4.75585 33.5239 4.41615C33.5239 4.33122 33.5239 4.33121 33.6086 4.24628C34.5398 1.69851 36.9102 0 39.6192 0Z" fill="#F24D51"/>
<path fill-rule="evenodd" clip-rule="evenodd" d="M38.3493 17.9193H40.889C41.3123 17.9193 41.6509 18.259 41.6509 18.6836V20.7218C41.6509 21.1465 41.3123 21.4862 40.889 21.4862H38.3493C37.926 21.4862 37.5874 21.1465 37.5874 20.7218V18.6836C37.5874 18.259 37.926 17.9193 38.3493 17.9193Z" fill="#4D4948"/>
<path fill-rule="evenodd" clip-rule="evenodd" d="M32.6771 4.75583C35.2168 4.75583 37.2485 6.79404 37.2485 9.34181C37.2485 9.93629 37.1638 10.5308 36.9099 11.1253C36.2326 12.8238 34.4548 15.1168 33.185 16.6454C32.8464 17.0701 32.4231 17.0701 32.0845 16.6454C30.8146 15.2017 29.1215 12.9087 28.3596 11.2102C28.1056 10.7006 28.021 10.1061 28.021 9.42674C28.1057 6.87897 30.1374 4.75583 32.6771 4.75583Z" fill="#2FC66B"/>
<path fill-rule="evenodd" clip-rule="evenodd" d="M31.8307 17.6646H33.4392C33.6931 17.6646 33.9471 17.9193 33.9471 18.1741V19.5329C33.9471 19.7877 33.6931 20.0425 33.4392 20.0425H31.8307C31.5767 20.0425 31.3228 19.7877 31.3228 19.5329V18.1741C31.3228 17.9193 31.5767 17.6646 31.8307 17.6646Z" fill="#2FC66B"/>
<path fill-rule="evenodd" clip-rule="evenodd" d="M50.4552 7.13376C52.233 7.13376 53.5875 8.57751 53.5875 10.276C53.5875 10.7006 53.5028 11.1253 53.3335 11.465C52.8256 12.6539 51.6404 14.2675 50.7938 15.2866C50.5399 15.6263 50.2859 15.5414 50.0319 15.2866C49.1854 14.2675 48.0002 12.6539 47.4923 11.5499C47.3229 11.2102 47.2383 10.7856 47.2383 10.3609C47.2383 8.57751 48.6774 7.13376 50.4552 7.13376Z" fill="#FCC229"/>
<path fill-rule="evenodd" clip-rule="evenodd" d="M49.8625 16.0509H50.9631C51.1324 16.0509 51.3017 16.2208 51.3017 16.3907V17.3248C51.3017 17.4947 51.1324 17.6645 50.9631 17.6645H49.8625C49.6932 17.6645 49.5239 17.4947 49.5239 17.3248V16.3907C49.5239 16.2208 49.6932 16.0509 49.8625 16.0509Z" fill="#FCC229"/>
<path fill-rule="evenodd" clip-rule="evenodd" d="M37.9261 35.414V23.0998V22.7601H38.2647H41.0584H41.397V23.0998V34.1401C41.397 35.3291 41.2277 36.3482 40.8044 37.1975C40.3811 38.0467 39.7885 38.7261 38.942 39.2357C38.6033 39.4055 38.1801 39.5754 37.7568 39.7452C37.3335 39.8302 36.9102 39.9151 36.4023 40H35.979V39.5754V38.1316V37.8769C37.4182 37.5372 37.9261 36.9427 37.9261 35.414Z" fill="#4D4948"/>
<path fill-rule="evenodd" clip-rule="evenodd" d="M3.55555 26.1571H10.6667H11.0053V26.4968V27.8556V28.1953H10.6667H3.55555V34.0552V34.3949H3.21693H0.42328H0V34.0552V26.8365C0 23.3546 1.26984 21.4862 4.57142 21.2314H10.6667H11.0053V21.5711V22.9299V23.2696H10.6667H5.50264C3.97884 23.3546 3.55555 24.5435 3.55555 26.1571Z" fill="#4D4948"/>
<path fill-rule="evenodd" clip-rule="evenodd" d="M22.8573 28.9597C22.9419 29.0446 22.9419 29.0446 22.9419 29.0446L23.0266 29.1295C23.1959 29.2994 23.7885 29.9788 23.8731 30.0637C24.0425 30.2335 24.2964 29.9788 24.4657 29.8089C24.635 29.4692 24.4657 29.0446 24.2964 28.7898C24.2118 28.7049 24.1271 28.535 24.0425 28.4501C23.7038 27.9405 23.7038 27.6008 24.0425 27.0913C24.2118 26.8365 24.4657 26.4968 24.889 25.9873C24.9737 25.9023 25.397 25.4777 25.397 25.4777C25.5663 24.7134 25.9049 24.1189 26.4128 23.7792C27.5134 23.0149 29.1218 23.2696 29.9684 24.2887C30.4763 24.9681 30.8149 25.9023 30.8149 27.2611V29.2144V34.1401V34.4798H31.1536H33.8626H34.2012V34.0552V29.1295V27.1762C34.2012 25.9872 34.0319 24.9681 33.6086 24.1189C33.1853 23.2696 32.5081 22.5902 31.6615 22.0807C29.6298 20.8917 25.6509 20.8917 23.7885 22.5902C22.7726 23.5244 22.18 24.8832 22.0954 26.4968C22.0107 27.5159 22.0107 27.9405 22.3493 28.4501C22.6033 28.6199 22.6033 28.7049 22.8573 28.9597ZM25.2276 31.8471C25.143 31.6773 25.0583 31.5923 25.143 31.4225C25.2276 31.2526 25.397 31.1677 25.6509 31.1677C25.7356 31.1677 25.8202 31.2526 25.9049 31.3376C25.9896 31.4225 26.5821 32.017 26.5821 32.1019C26.8361 32.5265 26.2435 32.9511 25.9895 32.6114L25.2276 31.8471ZM26.3282 29.8938C26.2435 29.6391 26.4128 29.4692 26.5821 29.3843C26.8361 29.2994 26.9208 29.4692 27.0901 29.5541L27.6827 30.1486C27.9366 30.4034 27.7673 30.7431 27.5134 30.828C27.2594 30.913 27.1747 30.7431 27.0054 30.6582C26.9208 30.5732 26.7515 30.4034 26.6668 30.3185C26.4975 30.1486 26.3282 30.0637 26.3282 29.8938ZM26.8361 28.9597C26.7514 28.6199 27.0901 28.3652 27.4287 28.535C27.5134 28.535 27.9366 29.0446 28.0213 29.1295C28.106 29.2144 28.2753 29.3843 28.3599 29.5541C28.3599 29.8089 28.2753 29.9788 28.1059 29.9788C27.852 30.0637 27.7673 29.8938 27.598 29.724L27.0901 29.2144C27.0054 29.1295 26.9208 29.0446 26.8361 28.9597ZM25.6509 30.7431C25.6509 30.4883 25.7356 30.3185 25.9049 30.3185C26.1589 30.2335 26.3282 30.4034 26.4128 30.5732L27.0054 31.1677C27.2594 31.4225 27.0901 31.7622 26.8361 31.8471C26.5821 31.932 26.4975 31.7622 26.3282 31.5924C26.1589 31.4225 25.9896 31.3376 25.9049 31.1677C25.8202 30.9979 25.7356 30.9129 25.6509 30.7431Z" fill="#4D4948"/>
<path fill-rule="evenodd" clip-rule="evenodd" d="M17.0158 28.0255V23.0998V22.7601H16.6772H13.9682H13.5449V23.0998V28.0255V29.9788C13.5449 31.1677 13.7142 32.1868 14.1375 33.0361C14.3068 33.2909 14.3915 33.5457 14.5608 33.8004C15.746 35.499 17.947 36.0934 19.8095 36.0085C21.7566 35.9236 23.7883 35.1592 24.8042 33.4607C25.0581 33.121 25.2275 32.7813 25.3121 32.4416C25.2275 32.3567 25.2275 32.3567 25.2275 32.2718C25.1428 32.1868 24.8042 31.8471 24.7195 31.7622C24.6349 31.6773 24.6349 31.5074 24.6349 31.4225C24.6349 30.9979 25.0581 30.7431 25.2275 30.7431C25.2275 30.5733 25.2275 30.3185 25.3968 30.1486C25.4814 30.0637 25.6507 29.9788 25.8201 29.8939C25.8201 29.8089 25.8201 29.6391 25.8201 29.5542C25.9047 29.2994 25.9894 29.2145 26.1587 29.1295C26.2433 29.0446 26.328 29.0446 26.4126 29.0446C26.4126 28.8747 26.4126 28.7898 26.4126 28.7049C26.4973 28.2803 27.0052 28.1104 27.3439 28.3652C27.4285 28.4501 27.5978 28.535 27.6825 28.7049C27.7671 28.7898 27.8518 28.8747 27.8518 28.9597C27.8518 28.9597 27.8518 28.9597 27.9365 29.0446L28.1058 29.2144C28.1904 29.0446 28.2751 28.7898 28.1904 28.62C28.1058 28.3652 27.9364 28.3652 27.8518 28.2803C27.7671 28.1953 27.7671 28.1104 27.7671 27.9405C27.7671 27.431 27.3439 27.431 27.2592 27.3461C27.4285 26.9215 27.2592 26.327 26.6666 26.327C26.8359 25.9023 26.4973 25.4777 25.9894 25.5626C25.82 25.5626 25.6507 25.7325 25.4814 25.8174L25.3121 25.9873C25.2275 26.0722 25.1428 26.1571 25.1428 26.1571C25.0581 26.2421 25.0581 26.327 24.9735 26.327L24.6349 26.7516L24.5502 26.8365L24.4655 26.9215C24.0423 27.5159 23.9576 27.9406 24.2962 28.4501C24.3809 28.62 24.4656 28.7049 24.6349 28.9597C25.2275 29.8938 24.2116 30.913 23.7036 30.4034L22.9417 29.6391C22.8571 29.5541 22.8571 29.5541 22.8571 29.4692C22.8571 29.4692 22.8571 29.4692 22.7724 29.3843L22.3491 28.9597L22.2645 28.8747C22.2645 28.9597 22.1798 29.2994 22.2645 29.3843C22.2645 29.724 22.3492 30.1486 22.4338 30.4883C22.5185 30.9129 22.5185 31.3376 22.5185 31.6773C22.3492 32.9512 21.4179 34.0552 19.8941 34.0552C18.455 34.0552 17.1005 32.8662 17.1005 30.1486V28.0255H17.0158Z" fill="#FCC229"/>
<path fill-rule="evenodd" clip-rule="evenodd" d="M14.6455 14.6072V15.2866H15.9153C16.0847 15.2866 16.254 15.2866 16.3386 15.2866C16.5079 15.2866 16.6772 15.2017 16.8466 15.1168C17.1005 14.862 17.2698 14.5223 17.2698 14.0977C17.2698 13.2484 16.7619 12.8238 15.9153 12.8238H14.6455V13.5032H16C16.3386 13.5032 16.5079 13.758 16.5079 14.0127C16.5079 14.2675 16.3386 14.6072 16.0847 14.6072H14.6455Z" fill="#4D4948"/>
<path fill-rule="evenodd" clip-rule="evenodd" d="M14.3916 19.1083V19.6178C14.4763 19.6178 14.6456 19.5329 14.7302 19.5329C14.8149 19.448 14.9842 19.448 15.0689 19.3631C15.1535 19.2781 15.2382 19.2781 15.4075 19.1083C15.4921 19.0233 15.6614 18.8535 15.8308 18.7686L15.9154 18.6836L16.0001 18.7686C16.1694 18.9384 16.254 19.0233 16.4233 19.1083C16.508 19.1932 16.6773 19.2781 16.762 19.3631C16.8466 19.448 16.9313 19.448 17.1006 19.5329C17.1853 19.5329 17.2699 19.6178 17.4392 19.6178V19.1083C17.3546 19.1083 17.2699 19.0233 17.2699 19.0233C17.1852 18.9384 17.1006 18.9384 17.0159 18.8535C16.9313 18.7686 16.8466 18.6836 16.762 18.5987C16.6773 18.5138 16.5927 18.4289 16.508 18.259V18.1741C16.5927 18.0042 16.762 17.8344 16.8466 17.6645C16.9313 17.4947 17.0159 17.3248 17.1006 17.2399C17.2699 16.9851 17.3546 16.7303 17.3546 16.4756C17.4392 16.3057 17.4392 16.1359 17.4392 16.0509C17.4392 15.966 17.4392 15.966 17.4392 15.8811C17.4392 15.8811 17.4392 15.7962 17.3546 15.7962C17.3546 15.7962 17.2699 15.7112 17.1853 15.7112C17.1006 15.7112 16.9313 15.7112 16.762 15.7112H14.9842V16.3057H16.4233C16.508 16.3057 16.5927 16.3057 16.5927 16.3057C16.6773 16.3057 16.6773 16.3906 16.6773 16.4756C16.6773 16.5605 16.6773 16.6454 16.5927 16.7304C16.5927 16.8153 16.508 16.9851 16.4233 17.0701L16.1694 17.4947L16.0847 17.5796L16.0001 17.4947L15.5768 16.7304H14.8995L15.7461 18.1741V18.259C15.6614 18.3439 15.5768 18.5138 15.4921 18.5987C15.4075 18.6836 15.3228 18.7686 15.2382 18.8535C15.1535 18.9384 15.0688 18.9384 14.9842 19.0233C14.5609 19.0233 14.4763 19.1083 14.3916 19.1083Z" fill="#595757"/>
<path fill-rule="evenodd" clip-rule="evenodd" d="M11.6826 13.758V19.6178H12.3599V18.5138V18.4289H12.4445H14.1376V17.9193H12.4445H12.3599V17.8344V17.0701V16.9851H12.4445H14.1376V16.3907H12.4445H12.3599V16.3057V15.8811V15.7113V15.6263V15.0319V14.9469V14.6922V13.758C12.3599 13.6731 12.3599 13.673 12.3599 13.5881C12.3599 13.5032 12.4445 13.5032 12.4445 13.4183C12.4445 13.4183 12.5292 13.3334 12.6138 13.3334C12.6985 13.3334 12.6985 13.3334 12.7831 13.3334H13.2064C13.2911 13.3334 13.3757 13.3334 13.4604 13.4183C13.545 13.5032 13.545 13.5881 13.545 13.673V14.5223C13.545 14.6072 13.545 14.6922 13.545 14.6922C13.545 14.7771 13.4604 14.7771 13.4604 14.862C13.4604 14.862 13.3757 14.9469 13.2911 14.9469C13.2064 14.9469 13.2064 14.9469 13.1218 14.9469H12.6138V15.5414H13.0371C13.2064 15.5414 13.3757 15.5414 13.4604 15.5414C13.545 15.5414 13.7144 15.5414 13.799 15.4565C13.799 15.4565 13.8837 15.4565 13.8837 15.3716L13.9683 15.2866C14.053 15.2017 14.053 15.1168 14.1376 15.0319C14.1376 14.9469 14.2223 14.862 14.2223 14.7771V13.673C14.2223 13.5032 14.2223 13.3333 14.1376 13.2484C14.1376 13.1635 14.053 13.0786 13.9683 12.9937C13.8837 12.9087 13.6297 12.8238 13.3757 12.8238H12.4445C12.2752 12.8238 12.1906 12.8238 12.1059 12.9087C12.0212 12.9936 11.9366 12.9936 11.8519 13.1635C11.8519 13.2484 11.7673 13.2484 11.7673 13.4183C11.6826 13.4183 11.6826 13.5881 11.6826 13.758Z" fill="#4D4948"/>
<path fill-rule="evenodd" clip-rule="evenodd" d="M10.4127 13.9278V19.6178H11.0899V13.673C11.0899 13.0786 10.8359 12.8238 10.074 12.8238H9.48145V13.4183H9.82008C10.328 13.4183 10.4127 13.5881 10.4127 13.9278Z" fill="#4D4948"/>
<path fill-rule="evenodd" clip-rule="evenodd" d="M2.28564 15.5414H3.47084C3.64015 15.5414 3.80946 15.6263 3.80946 15.8811V18.6837C3.80946 18.7686 3.80945 18.8535 3.7248 18.9384C3.64014 19.0234 3.55549 19.0234 3.47084 19.0234H3.13221V19.6178H3.7248C3.89411 19.6178 3.97877 19.6178 4.06343 19.5329C4.14808 19.5329 4.23274 19.448 4.3174 19.3631C4.40205 19.2782 4.40205 19.1932 4.40205 19.1932C4.40205 19.1083 4.48671 19.0234 4.48671 18.9384V15.5414C4.48671 15.3716 4.4867 15.2866 4.40205 15.2017C4.31739 15.1168 4.23273 15.0319 4.14808 14.9469C4.14808 14.9469 4.06342 14.9469 3.97877 14.862C3.89411 14.862 3.80945 14.862 3.7248 14.862H2.37031V15.5414H2.28564Z" fill="#4D4948"/>
<path fill-rule="evenodd" clip-rule="evenodd" d="M0.761894 19.0234V19.7028C1.94708 19.3631 2.11639 18.4289 2.03174 17.4947V13.9278H2.1164H4.57142V13.3334H3.04762H2.96296V13.2484V12.8238H2.28571V13.2484V13.3334H2.20106H0.677246V13.9278H1.26984H1.3545V14.0127V17.9193C1.3545 18.5987 0.84655 18.8535 0.761894 19.0234Z" fill="#4D4948"/>
<path fill-rule="evenodd" clip-rule="evenodd" d="M8.38105 13.2484H6.26465H6.01069H5.92603C5.67206 13.2484 5.58741 13.1635 5.58741 12.9087V12.7389H4.91016V13.0786C4.91016 13.673 5.24878 13.8429 5.75672 13.8429H5.84137H6.01069H7.19587H7.28053C7.28053 14.9469 7.28053 16.3057 6.60328 17.4947L6.51862 17.5796L6.43397 17.4947C6.26466 17.155 6.09534 16.9002 6.01069 16.4756C5.84138 15.7962 5.67206 15.0319 5.58741 14.4374H5.07947C5.07947 14.4374 5.24877 16.6455 6.26465 18.0043C6.09533 18.1741 5.84137 18.344 5.67206 18.5138C5.50274 18.6837 5.24877 18.7686 4.9948 18.8535V19.448C5.16412 19.3631 5.24878 19.3631 5.33344 19.2781C5.50275 19.1932 5.5874 19.1932 5.75672 19.1083C5.92603 19.0234 6.01069 18.9384 6.18 18.8535C6.34931 18.7686 6.51861 18.5987 6.68793 18.5138C7.11121 18.9385 7.7038 19.3631 8.38105 19.5329V18.9385C7.87311 18.7686 7.53449 18.5138 7.11121 18.1741H7.02656V18.0892C7.78846 16.7304 7.87311 15.4565 7.95777 13.9278V13.8429H8.04243H8.2964V13.2484H8.38105Z" fill="#4D4948"/>
<path fill-rule="evenodd" clip-rule="evenodd" d="M24.0424 17.8344V18.5987C24.2117 18.5138 24.381 18.3439 24.4656 18.1741C24.6349 18.0042 24.8043 17.8344 24.9736 17.5796L25.0582 17.4947L25.1429 17.5796C25.3122 17.7495 25.4815 18.0042 25.6508 18.1741C25.8201 18.3439 25.9894 18.4289 26.1588 18.5987V17.8344C25.9894 17.6645 25.9048 17.5796 25.7355 17.4098C25.6508 17.2399 25.4815 17.155 25.3969 17.0701C25.4815 16.9002 25.5662 16.7304 25.5662 16.5605C25.6508 16.3907 25.6508 16.3057 25.7355 16.2208C25.8201 16.051 25.8201 15.966 25.8201 15.7962C25.8201 15.6263 25.9048 15.4565 25.9048 15.2866C25.9895 14.9469 25.9894 14.6072 25.9894 14.3524C25.9894 14.0977 25.9894 13.8429 25.9894 13.5881C25.9894 13.5032 25.9895 13.3333 25.9048 13.2484C25.9048 13.1635 25.8201 13.0786 25.7355 13.0786C25.6508 13.0786 25.6508 12.9937 25.5662 12.9937C25.4815 12.9937 25.3969 12.9937 25.3122 12.9937H23.873V13.5881H25.0582C25.1429 13.5881 25.2275 13.5881 25.3122 13.673C25.3969 13.758 25.3969 13.8429 25.3969 13.9278C25.3969 14.0977 25.3969 14.2675 25.3969 14.4374C25.3969 14.6072 25.3969 14.862 25.3122 15.1168C25.3122 15.2866 25.2275 15.5414 25.2275 15.7113C25.1429 15.8811 25.1429 16.1359 25.0582 16.3907L24.9736 16.5605L24.8889 16.3907C24.8043 16.1359 24.7196 15.7962 24.7196 15.4565C24.635 15.1168 24.635 14.6922 24.635 14.1826H24.127C24.127 14.4374 24.127 14.6921 24.2117 14.862C24.2117 15.0319 24.2117 15.2866 24.2963 15.3716C24.2963 15.6263 24.381 15.966 24.4656 16.2208C24.5503 16.4756 24.635 16.8153 24.7196 17.155C24.635 17.3249 24.4656 17.4098 24.381 17.5796C24.2117 17.6646 24.127 17.7495 24.0424 17.8344Z" fill="#595757"/>
<path fill-rule="evenodd" clip-rule="evenodd" d="M21.2485 17.4947V18.0892H22.9417H23.0263V18.1741V18.5987H23.5342V18.1741V18.0892H23.6189H23.7882V17.4947H23.6189H23.5342V17.4098V13.5881V13.5032H23.6189H23.7882V12.9087H21.2485V13.5032H21.4178H21.5025V13.5881V17.4098V17.4947H21.4178H21.2485ZM22.7723 14.3524H22.0951H22.0104V14.2675V13.673V13.5881H22.0951H22.9417H23.0263V13.673V14.0977V14.2675V14.3524V14.9469V15.0319V15.8811V15.9661V16.5605V16.6454V16.9002V17.4947V17.5796H22.9417H22.0951H22.0104V17.4947V16.7304V16.6454H22.0951H22.7723V16.051H22.0951H22.0104V15.9661V15.1168V15.0319H22.0951H22.7723V14.3524Z" fill="#595757"/>
<path fill-rule="evenodd" clip-rule="evenodd" d="M20.6563 19.7028H26.0743V19.1083H20.9103C20.3177 19.1083 20.1484 19.0234 20.1484 18.5138V17.5796V17.4947H20.233H20.9103V16.9002H20.233H20.1484V16.8153V15.7113V15.6263H20.233H20.9103V15.0319H20.233H20.1484V14.9469V14.0977V14.0127H20.233H20.9103V13.4183H20.233H20.1484V13.3334V12.8238H19.5558V13.3334V13.4183H19.4711H18.3706V14.0127H19.4711H19.5558V14.0977V14.9469V15.0319H19.4711H18.3706V15.6263H19.4711H19.5558V15.7113V17.155V18.6837C19.6405 19.3631 20.0637 19.7028 20.6563 19.7028Z" fill="#4D4948"/>
<path fill-rule="evenodd" clip-rule="evenodd" d="M18.3706 19.7028C19.2172 19.1932 19.2172 18.5988 19.2172 17.6646V16.3907H18.6246V18.1741C18.6246 18.5987 18.4553 18.8535 18.3706 19.0234V19.7028Z" fill="#595757"/>
<path fill-rule="evenodd" clip-rule="evenodd" d="M56.8889 26.6667C56.4656 24.2038 54.4338 22.93 51.7248 22.7601H46.4761H46.1375V23.0998V24.4586V24.7983H46.4761H50.6243C52.3174 24.7983 53.5026 25.8174 53.5873 27.1762V27.2612V27.6009V29.1295C53.5873 31.3376 53.2486 32.3567 51.2169 32.3567H49.2698C48.8465 32.3567 48.5079 32.2718 48.3386 32.017C47.746 31.5924 47.5767 30.5733 47.8306 29.8939C48.5925 28.0255 51.5555 28.535 52.91 29.5542V27.6009C51.2169 26.6667 49.0158 26.4968 47.3227 26.9215C46.3068 27.1762 45.5449 27.7707 44.9523 28.535C44.2751 29.4692 44.1904 30.7431 44.6137 31.8471C45.291 33.5456 47.0687 34.4798 48.9312 34.4798H50.7936C51.5555 34.4798 52.4867 34.225 53.4179 33.8853V34.4798H56.8889V26.9215V26.6667Z" fill="#4D4948"/>
</svg>
