<svg width="180" height="71" viewBox="0 0 180 71" fill="none" xmlns="http://www.w3.org/2000/svg">
<rect width="180" height="70.7514" fill="black" fill-opacity="0"/>
<path fill-rule="evenodd" clip-rule="evenodd" d="M69.6018 0C75.804 0 80.9035 5.15313 80.9035 11.4205C80.9035 12.9525 80.6279 14.3453 80.0766 15.738C78.4227 19.9162 74.1501 25.6265 70.9801 29.2477C70.0153 30.3618 69.1884 30.2226 68.2236 29.2477C66.9831 27.7156 65.4671 25.905 64.0888 23.9552C63.951 23.8159 63.951 23.8159 63.8132 23.6767C65.1914 21.5876 66.5697 19.0806 66.5697 16.5737C66.5697 12.2561 63.2619 8.49575 58.9893 7.79938C58.9893 7.66011 58.9893 7.66009 59.1271 7.52082C60.781 3.06403 64.7779 0 69.6018 0Z" fill="#F24D51"/>
<path fill-rule="evenodd" clip-rule="evenodd" d="M67.3967 31.7546H71.807C72.634 31.7546 73.1853 32.451 73.1853 33.1473V36.7685C73.1853 37.4648 72.4962 38.1612 71.807 38.1612H67.3967C66.7075 38.1612 66.0184 37.6041 66.0184 36.7685V33.1473C66.0184 32.3117 66.7075 31.7546 67.3967 31.7546Z" fill="#4D4948"/>
<path fill-rule="evenodd" clip-rule="evenodd" d="M57.4732 8.49576C61.8836 8.49576 65.6049 12.1169 65.6049 16.7129C65.6049 17.8271 65.3293 18.802 65.0536 19.777C63.8132 22.7017 60.781 26.88 58.5758 29.5262C57.8867 30.2225 57.1976 30.2225 56.6463 29.5262C54.441 26.88 51.4089 22.841 50.1685 19.9162C49.755 18.9413 49.6171 17.8272 49.6171 16.8522C49.3415 12.1169 52.925 8.49576 57.4732 8.49576Z" fill="#2FC66B"/>
<path fill-rule="evenodd" clip-rule="evenodd" d="M55.9571 31.3368H58.8515C59.4028 31.3368 59.8163 31.7546 59.8163 32.3117V34.6793C59.8163 35.2364 59.4028 35.6543 58.8515 35.6543H55.9571C55.4058 35.6543 54.9924 35.2364 54.9924 34.6793V32.3117C55.1302 31.7546 55.5437 31.3368 55.9571 31.3368Z" fill="#2FC66B"/>
<path fill-rule="evenodd" clip-rule="evenodd" d="M88.4839 12.674C91.5161 12.674 93.9969 15.1809 93.9969 18.245C93.9969 18.9413 93.8591 19.777 93.5835 20.3341C92.7565 22.4232 90.6891 25.2087 89.1731 27.0192C88.7596 27.5763 88.2083 27.5763 87.7948 27.0192C86.2787 25.2087 84.2113 22.4232 83.3844 20.3341C83.1087 19.6377 82.9709 18.9413 82.9709 18.245C82.9709 15.1809 85.4518 12.674 88.4839 12.674Z" fill="#FCC229"/>
<path fill-rule="evenodd" clip-rule="evenodd" d="M87.5191 28.412H89.4487C89.7244 28.412 90 28.6905 90 28.9691V30.6404C90 30.9189 89.7244 31.1975 89.4487 31.1975H87.5191C87.2435 31.1975 86.9678 30.9189 86.9678 30.6404V28.9691C86.9678 28.6905 87.2435 28.412 87.5191 28.412Z" fill="#FCC229"/>
<path fill-rule="evenodd" clip-rule="evenodd" d="M66.5697 62.6735V40.9467V40.2503H67.2588H72.2206H72.9097V40.9467V60.4451C72.9097 62.5343 72.4962 64.3448 71.8071 65.8768C71.1179 67.4089 70.0153 68.6623 68.4993 69.498C67.948 69.9158 67.2588 70.1944 66.4319 70.3336C65.7427 70.6122 64.9158 70.7514 64.0888 70.7514H63.3997V70.1944V67.6874V67.2696C65.7427 66.4339 66.5697 65.459 66.5697 62.6735Z" fill="#4D4948"/>
<path fill-rule="evenodd" clip-rule="evenodd" d="M6.33998 46.3784H18.8821H19.5712V47.0748V49.5817V50.2781H18.8821H6.33998V60.5844V61.2808H5.65085H0.689127H0V60.4451V47.6319C0 41.5038 2.34306 38.1612 7.9939 37.7434H18.7443H19.4334V38.4398V40.9467V41.6431H18.7443H9.64778C7.0291 41.3645 6.33998 43.5929 6.33998 46.3784Z" fill="#4D4948"/>
<path fill-rule="evenodd" clip-rule="evenodd" d="M40.1072 51.253C40.245 51.3923 40.245 51.3923 40.245 51.3923L40.3829 51.6709C40.6585 51.9494 41.7611 53.0636 41.899 53.3421C42.3124 53.6207 42.7259 53.2029 42.8637 52.9243C43.1394 52.3672 42.8637 51.6708 42.5881 51.1137C42.4503 50.9745 42.3124 50.6959 42.1746 50.5566C41.6233 49.721 41.6233 49.0246 42.1746 48.0497C42.4502 47.6319 43.0015 46.9355 43.6907 45.9606C43.8285 45.8213 44.5176 44.9857 44.5176 44.9857C44.7933 43.5929 45.3446 42.618 46.3093 41.9216C48.2389 40.5289 51.1332 41.086 52.5115 42.8965C53.4763 44.0107 54.0276 45.8213 54.0276 48.189V51.6709V60.3059V61.0022H54.5789H59.4028H59.9541V60.3059V51.6709V48.189C59.9541 46.0999 59.5406 44.2893 58.8515 42.7573C58.1623 41.2252 56.9219 39.9718 55.5437 39.1362C51.9602 37.047 44.9311 37.047 41.7611 39.9718C39.9694 41.5038 39.0046 44.0107 38.729 46.9355C38.5911 48.7461 38.5912 49.5817 39.1425 50.4174C39.6938 50.6959 39.8316 50.8352 40.1072 51.253ZM44.3798 56.4062C44.1042 56.1276 44.1041 55.9884 44.242 55.5705C44.3798 55.292 44.6555 55.0135 45.0689 55.1527C45.2068 55.1527 45.3446 55.292 45.4824 55.4313C45.6202 55.5705 46.585 56.5454 46.7229 56.6847C47.1363 57.3811 46.1715 58.0775 45.6202 57.5204L44.3798 56.4062ZM46.3093 52.9243C46.1715 52.5065 46.4472 52.2279 46.7229 52.0887C47.1363 51.9494 47.4119 52.2279 47.5498 52.5065L48.5146 53.4814C49.0659 53.8992 48.6524 54.5956 48.2389 54.7349C47.8254 54.8742 47.5498 54.5956 47.412 54.3171C47.1363 54.0385 46.9985 53.8992 46.7229 53.6207C46.585 53.3422 46.3093 53.2029 46.3093 52.9243ZM47.2741 51.253C47.1363 50.6959 47.8254 50.1388 48.3767 50.5566C48.5146 50.5566 49.2037 51.3923 49.3415 51.5316C49.6172 51.8101 49.8928 51.9494 49.8928 52.228C49.8928 52.6458 49.6172 52.9243 49.3415 53.0636C48.928 53.2029 48.6524 52.9243 48.5146 52.6458L47.6876 51.8101C47.412 51.6708 47.2741 51.5316 47.2741 51.253ZM45.0689 54.3171C45.0689 53.8992 45.3446 53.6207 45.6202 53.4814C46.0337 53.3421 46.3094 53.6207 46.4472 53.8992L47.412 54.8742C47.8255 55.292 47.6876 55.9884 47.1363 56.1276C46.7228 56.2669 46.4472 55.9884 46.3093 55.7098C46.0337 55.4313 45.758 55.1527 45.6202 55.0134C45.3446 54.8742 45.2068 54.7349 45.0689 54.3171Z" fill="#4D4948"/>
<path fill-rule="evenodd" clip-rule="evenodd" d="M29.9081 49.5817V40.9467V40.2503H29.3568H24.5329H23.9817V40.9467V49.5817V53.0636C23.9817 55.1527 24.3951 56.9633 25.0842 58.4953C25.3599 58.9131 25.6355 59.3309 25.9112 59.7488C27.9786 62.6735 31.8377 63.7877 35.1455 63.6484C38.5911 63.5092 42.1746 62.1164 43.9663 59.1917C44.3798 58.6346 44.6554 57.9382 44.9311 57.3811C44.7933 57.2418 44.7933 57.2418 44.6555 57.1026C44.5176 56.9633 43.9663 56.2669 43.8285 56.1276C43.6907 55.9883 43.6907 55.7098 43.6907 55.5705C43.6907 54.7349 44.3798 54.4563 44.6555 54.3171C44.6555 53.8992 44.6554 53.6207 44.9311 53.2028C45.2067 52.9243 45.3446 52.9243 45.6202 52.785C45.6202 52.6458 45.6202 52.3672 45.6202 52.0887C45.758 51.6708 45.8959 51.5316 46.1715 51.253C46.3093 51.1137 46.4472 51.1137 46.585 51.1137C46.585 50.8352 46.585 50.6959 46.585 50.4174C46.7228 49.721 47.6876 49.4424 48.2389 49.8603C48.3767 49.9995 48.6524 50.1388 48.7902 50.4174C48.928 50.5566 49.0658 50.6959 49.0658 50.8352C49.0658 50.8352 49.0659 50.8352 49.2037 50.9745L49.4793 51.253C49.6172 50.9745 49.755 50.5567 49.6171 50.2781C49.4793 49.8603 49.2037 49.8603 48.928 49.5817C48.6524 49.4425 48.7902 49.3032 48.7902 49.0246C48.7902 48.189 48.1011 48.0497 47.8254 48.0497C48.1011 47.3533 47.8254 46.3784 46.8606 46.2391C47.1363 45.5427 46.585 44.7071 45.758 44.8464C45.4824 44.8464 45.2067 45.125 44.9311 45.2642L44.6555 45.5427C44.5176 45.682 44.3798 45.8213 44.3798 45.8213C44.242 45.9606 44.1041 46.0999 44.1041 46.0999L43.5528 46.7963L43.415 46.9355C43.415 47.0748 43.2772 47.0748 43.2772 47.0748C42.4503 48.189 42.3124 48.8853 43.0015 49.8603C43.2772 50.1388 43.2772 50.4174 43.5528 50.6959C44.5176 52.3672 42.8637 54.1778 41.899 53.2028L40.6585 51.8101C40.5207 51.6708 40.5207 51.6709 40.3829 51.5316C40.3829 51.5316 40.3829 51.5316 40.245 51.3923L39.5559 50.5566C39.5559 50.5566 39.4181 50.2781 39.2802 50.2781C39.2802 50.4174 39.1424 50.9745 39.2802 51.1137C39.2802 51.6708 39.4181 52.3672 39.5559 53.0636C39.6937 53.76 39.6937 54.4564 39.6937 55.1527C39.4181 57.5204 37.7642 59.331 35.1455 59.331C32.6646 59.331 30.1838 57.1026 30.1838 52.3672V49.5817H29.9081Z" fill="#FCC229"/>
<path fill-rule="evenodd" clip-rule="evenodd" d="M146.784 47.4926V45.5427V45.4035H146.922H151.057C151.47 45.4035 151.746 45.1249 151.884 44.8464C152.021 44.5678 152.159 44.15 152.159 43.7322C152.159 43.7322 152.159 43.7322 152.159 43.5929C152.159 43.1751 152.021 42.7573 151.746 42.4787C151.47 42.2002 151.195 42.0609 150.781 42.0609H146.784H146.646V42.3394V40.3896V40.2503H146.784H150.505H150.643C151.746 40.2503 152.711 40.5289 153.4 41.2253C154.089 41.7824 154.364 42.7573 154.502 43.8715V44.0108C154.502 44.5679 154.364 45.1249 154.089 45.682C153.951 46.2391 153.538 46.6569 153.262 46.9355C153.124 47.0748 152.848 47.2141 152.573 47.3533C152.297 47.4926 152.021 47.4926 151.746 47.4926C151.608 47.4926 151.332 47.4926 151.057 47.4926C150.781 47.4926 150.643 47.4926 150.368 47.4926H146.784ZM159.188 58.0774C158.913 59.0524 158.224 59.888 156.983 60.5844L156.845 60.7237V60.5844V58.4953C157.121 58.2167 157.259 57.9382 157.397 57.5204C157.534 57.1025 157.672 56.6847 157.672 56.1276V50.6959V50.6959H157.81H159.464H159.602V50.8352V54.5956C159.602 55.9883 159.602 57.1025 159.188 58.0774ZM179.587 60.5844L179.724 58.6346V58.4953H179.587H164.426C163.599 58.4953 163.047 58.4953 162.772 58.2167C162.496 57.9382 162.358 57.5204 162.358 56.824V54.1778V54.0385H162.496H164.426H164.564V53.8992V52.0887H164.426H162.496H162.358V51.9494V48.7461V48.6068H162.496H164.426H164.564V48.4675V46.657V46.5177H164.426H162.496H162.358V46.5177V44.0108V43.8715H162.496H164.426H164.564V43.7322V41.9216V41.7824H164.426H162.496H162.358V41.6431V39.9718V39.8325H162.221H160.567H160.429V39.9718V41.6431V41.7824H160.291H156.983H156.845V41.9216V43.7322V43.8715H156.983H160.291H160.429V44.0108V46.5177V46.657H160.291H156.983H156.845V46.7962V48.6068V48.7461H156.983H160.291H160.429V48.8854V53.2028V57.6596C160.429 58.7738 160.704 59.4702 161.256 60.0273C161.807 60.5844 162.634 60.8629 163.599 60.8629H179.587V60.5844ZM165.391 56.1276V54.3171V54.1778H165.528H165.942H166.08V54.0385V42.618V42.4787H165.942H165.528H165.391V42.3394V40.5289V40.3896H165.528H172.971H173.109V40.5289V42.3394V42.4787H172.971H172.557H172.42V42.618V54.0385V54.1778H172.557H172.971H173.109V54.3171V56.1276V56.2669H172.971H172.557H172.42V56.4062V57.6596V57.7989H172.282H170.766H170.628V57.6596V56.2669V56.1276H170.49H165.391ZM167.871 44.7071L167.734 44.5678V42.7573V42.618H167.871H170.352H170.49V42.7573V44.0108V44.5678V44.8464V46.657V46.9355V49.5817V49.8603V51.6709V51.9494V52.6457V54.3171V54.4563H170.352H167.871H167.734V54.3171V51.9494V51.8101H167.871H169.939H170.077V51.6709V49.8603V49.721H169.939H167.871H167.734V49.5817V46.9355V46.7962H167.871H169.939H170.077V46.5177V44.7071V44.5678H169.939H167.871V44.7071ZM173.522 57.3811V55.0134C173.66 54.8742 173.798 54.7349 173.936 54.5956C174.074 54.4563 174.211 54.3171 174.349 54.1778C174.487 54.0385 174.625 53.76 174.9 53.6207C175.038 53.4814 175.176 53.2029 175.452 53.0636V52.9243C175.314 52.5065 175.176 51.9494 175.038 51.5316C174.9 51.1137 174.763 50.6959 174.625 50.1388C174.487 49.721 174.487 49.3032 174.349 48.8854C174.211 48.4675 174.211 48.0497 174.211 47.6319C174.211 47.4926 174.211 47.214 174.074 46.9355C174.074 46.6569 174.074 46.3784 173.936 46.0999C173.936 45.8213 173.936 45.5428 173.936 45.1249C173.936 44.8464 173.936 44.4286 173.936 44.0108V43.8715H174.074H175.59H175.727V44.0108C175.727 44.7071 175.865 45.4035 175.865 46.0999C175.865 46.657 176.003 47.3533 176.003 47.7711C176.141 48.3282 176.141 48.8853 176.279 49.3032C176.417 49.721 176.554 50.1388 176.554 50.5566L176.692 50.9745L176.83 50.5566C176.968 50.2781 176.968 49.8603 177.106 49.5817C177.243 49.3032 177.244 48.8853 177.381 48.6068C177.381 48.3282 177.519 48.0497 177.519 47.7711C177.519 47.4926 177.657 47.214 177.657 46.9355C177.657 46.5177 177.795 46.2391 177.795 45.8213C177.795 45.4035 177.795 45.1249 177.933 44.8464C177.933 44.5678 177.933 44.2893 177.933 44.0108C177.933 43.7322 177.933 43.5929 177.933 43.3144C177.933 43.1751 177.933 43.0358 177.933 42.8965C177.933 42.7573 177.795 42.7573 177.795 42.618C177.795 42.4787 177.657 42.4787 177.519 42.4787C177.381 42.4787 177.381 42.4787 177.243 42.4787H173.798H173.66V42.3394V40.5289V40.3896H173.798H178.07C178.208 40.3896 178.346 40.3896 178.484 40.3896C178.622 40.3896 178.76 40.3896 178.76 40.3896C178.897 40.3896 178.897 40.3896 179.035 40.5289C179.173 40.5289 179.173 40.6681 179.311 40.6681C179.449 40.6681 179.449 40.8074 179.587 40.9467C179.587 41.086 179.724 41.086 179.724 41.2253V41.3645C179.724 41.5038 179.724 41.5038 179.862 41.6431C179.862 41.7823 179.862 41.9216 179.862 42.2002C179.862 42.4787 179.862 42.8966 179.862 43.1751C179.862 43.5929 179.862 43.8715 179.724 44.2893C179.724 44.7071 179.587 45.1249 179.587 45.5427C179.587 45.9606 179.449 46.5177 179.449 46.9355C179.449 47.214 179.311 47.4926 179.311 47.7711C179.311 48.0497 179.173 48.3282 179.173 48.4675C179.173 48.7461 179.035 48.8853 179.035 49.1639C179.035 49.4424 178.897 49.5817 178.897 49.8603C178.897 49.9995 178.76 50.1388 178.76 50.2781C178.76 50.4174 178.622 50.6959 178.484 50.8352C178.346 50.9745 178.346 51.253 178.208 51.5316C178.07 51.8101 178.07 51.9494 177.933 52.2279V52.3672C178.07 52.5065 178.208 52.785 178.346 52.9243C178.484 53.0636 178.622 53.3421 178.897 53.4814C179.035 53.6207 179.311 53.8992 179.449 54.0385C179.587 54.1778 179.862 54.4563 180 54.5956V56.9633V57.1025L179.862 56.9633C179.587 56.824 179.311 56.5455 179.173 56.4062C178.897 56.2669 178.76 55.9884 178.484 55.7098C178.208 55.4313 177.933 55.1527 177.657 54.8741C177.381 54.5956 177.106 54.317 176.968 54.0385L176.83 53.8992L176.692 54.0385C176.417 54.317 176.279 54.5956 176.003 54.8741C175.727 55.1527 175.452 55.4313 175.314 55.7098C175.176 55.8491 174.9 56.1276 174.625 56.2669C174.074 57.1025 173.936 57.3811 173.522 57.3811V57.5204V57.3811ZM123.078 41.5038H129.142H129.28V41.6431V43.4536V43.5929H129.142H128.453H128.315V43.7322C128.178 46.0999 128.178 48.0497 127.764 50.1388C127.351 52.0887 126.799 54.0385 125.559 56.1276V56.2669L125.697 56.4062C126.248 56.9633 126.799 57.3811 127.489 57.7989C128.04 58.2167 128.729 58.4953 129.418 58.7738V60.5844V60.7237H129.28C128.178 60.4451 127.351 60.0273 126.524 59.4702C125.697 58.9131 125.008 58.356 124.456 57.6596C124.181 57.7989 124.043 58.0775 123.767 58.2167C123.492 58.356 123.354 58.6345 123.078 58.7738C122.802 58.9131 122.665 59.0524 122.389 59.1917C122.113 59.3309 121.976 59.4702 121.7 59.6095C121.562 59.7487 121.286 59.7488 121.149 59.888C121.011 60.0273 120.735 60.0273 120.459 60.1666C120.322 60.3058 120.046 60.3059 119.908 60.4451C119.77 60.5844 119.495 60.5844 119.357 60.5844H119.219V60.4451V58.6346C119.495 58.4953 119.908 58.356 120.184 58.2167C120.459 58.0775 120.735 57.7989 121.149 57.6596C121.424 57.3811 121.838 57.2418 122.113 56.9633C122.389 56.6847 122.665 56.4062 123.078 56.1276C120.184 51.9494 119.632 45.5427 119.632 45.5427V45.4035H119.77H121.562H121.7V45.5427C121.838 46.5177 121.976 47.4926 122.251 48.6068C122.527 49.5817 122.665 50.5566 122.94 51.3923C123.078 51.9494 123.354 52.3672 123.492 52.9243C123.767 53.3421 123.905 53.8992 124.181 54.3171L124.319 54.5956L124.456 54.4563C126.11 51.253 126.248 47.6319 126.386 44.4286V43.8715H126.248H122.802H122.251H122.113C121.286 43.8715 120.597 43.7322 120.184 43.3144C119.77 42.8966 119.495 42.3394 119.495 41.5038V40.5289V40.3896H119.632H121.562H121.7V40.5289V40.9467C121.7 41.3645 121.7 41.6431 121.838 41.6431C121.976 41.7823 122.113 41.7824 122.527 41.7824H122.802H123.078V41.5038ZM106.677 60.4451V58.4953L106.815 58.356C107.366 57.9382 108.469 57.2418 108.469 55.292V43.7322V43.5929H108.331H106.677H106.539V43.4536V41.6431V41.5038H106.677H111.225H111.363V41.3645V40.111V39.9718H111.501H113.43H113.568V40.111V41.3645V41.5038H113.706H118.254H118.392V41.6431V43.4536V43.5929H118.254H110.949H110.812V53.8992C110.949 55.292 110.812 56.6847 110.26 57.7989C109.571 58.9131 108.606 59.888 106.677 60.4451ZM114.809 48.3282C115.084 48.3282 115.36 48.4675 115.498 48.6068C115.636 48.7461 115.773 49.0246 115.773 49.3032V57.6596C115.773 57.9382 115.636 58.2167 115.498 58.356C115.36 58.4953 115.36 58.4953 115.222 58.4953C115.084 58.4953 114.946 58.4953 114.809 58.4953H113.844H113.706V58.6346V60.4451V60.5844H113.844H115.636C116.049 60.5844 116.325 60.5844 116.6 60.4451C116.738 60.4451 116.876 60.3058 117.014 60.3058C117.152 60.1666 117.289 60.1666 117.289 60.0273C117.427 59.888 117.427 59.888 117.565 59.7488C117.565 59.6095 117.703 59.4702 117.703 59.3309C117.703 59.1917 117.841 59.0524 117.841 58.9131C117.841 58.7738 117.841 58.6346 117.841 58.4953V48.4675C117.841 48.189 117.841 48.0497 117.703 47.9104C117.703 47.7711 117.565 47.4926 117.427 47.3533C117.289 47.2141 117.152 47.0748 117.014 46.9355C116.876 46.7962 116.738 46.657 116.462 46.657C116.462 46.657 116.325 46.657 116.187 46.5177C116.049 46.5177 116.049 46.5177 115.911 46.5177C115.773 46.5177 115.636 46.5177 115.498 46.5177C115.36 46.5177 115.222 46.5177 115.084 46.5177H111.087H110.949V46.657V48.4675V48.6068H111.087H114.809V48.3282ZM134.242 60.4451V43.5929C134.242 43.1751 134.242 42.7573 133.966 42.618C133.828 42.3395 133.415 42.3394 132.726 42.3394H131.623H131.485V42.2002V40.3896V40.2503H131.623H133.277C134.38 40.2503 135.207 40.3896 135.62 40.9467C136.172 41.3645 136.309 42.0609 136.309 42.8965V60.4451V60.5844H136.172L134.242 60.4451ZM138.101 60.4451V43.1751C138.101 42.8966 138.101 42.618 138.101 42.4787C138.101 42.2002 138.101 42.0609 138.101 41.9216C138.101 41.7824 138.101 41.6431 138.239 41.5038C138.239 41.3645 138.377 41.3645 138.377 41.2253C138.515 41.086 138.652 40.9467 138.652 40.8074C138.79 40.6681 138.928 40.6682 139.066 40.5289C139.204 40.3896 139.342 40.3896 139.617 40.3896C139.755 40.3896 140.031 40.3896 140.168 40.3896H142.925C143.338 40.3896 143.752 40.3896 144.028 40.5289C144.303 40.6682 144.579 40.8074 144.855 40.9467C144.992 41.086 144.992 41.2252 145.13 41.3645C145.268 41.5038 145.268 41.6431 145.268 41.7824C145.268 41.9216 145.406 42.2002 145.406 42.3394C145.406 42.4787 145.406 42.7573 145.406 43.0358V46.7962C145.406 46.9355 145.406 47.0748 145.406 47.2141C145.406 47.3533 145.406 47.4926 145.268 47.6319C145.268 47.7711 145.13 47.9104 145.13 48.0497C144.992 48.189 144.992 48.3282 144.855 48.3282L144.717 48.4675L144.579 48.6068C144.579 48.6068 144.441 48.6068 144.441 48.7461H144.303C144.165 48.7461 144.028 48.8854 143.89 48.8854C143.752 48.8854 143.614 48.8853 143.338 49.0246C143.201 49.0246 142.925 49.0246 142.649 49.0246C142.374 49.0246 142.236 49.0246 141.96 49.0246H140.858H140.72V48.8854V47.0748V46.9355H140.858H142.374C142.512 46.9355 142.511 46.9355 142.649 46.9355C142.787 46.9355 142.787 46.9355 142.925 46.9355C143.063 46.9355 143.063 46.9355 143.063 46.7962C143.063 46.7962 143.201 46.7962 143.201 46.657L143.338 46.5177C143.338 46.5177 143.338 46.3784 143.476 46.3784C143.476 46.2391 143.476 46.2391 143.476 46.0999C143.476 45.9606 143.476 45.9606 143.476 45.8213V43.4536C143.476 43.3143 143.476 43.1751 143.476 43.0358C143.476 42.8965 143.338 42.7573 143.338 42.7573C143.201 42.618 143.201 42.618 143.063 42.618C142.925 42.618 142.787 42.618 142.649 42.618H141.271C141.133 42.618 141.133 42.618 140.995 42.618C140.858 42.618 140.858 42.618 140.72 42.618C140.582 42.618 140.582 42.618 140.444 42.618C140.444 42.618 140.306 42.618 140.306 42.7573L140.168 42.8965C140.168 42.8965 140.168 43.0358 140.031 43.0358C140.031 43.0358 140.031 43.1751 140.031 43.3144C140.031 43.4537 140.031 43.4536 140.031 43.5929V46.3784V47.0748V47.3533V49.1639V49.4425V49.9995V51.253V51.3923H140.168H145.13H145.268V51.5316V53.2028V53.3421H145.13H140.168H140.031V53.4814V55.5705V55.7098H140.168H145.13H145.268V55.8491V57.6596V57.7989H145.13H140.168H140.031V57.9382V61.1415V61.2808H139.893L138.101 60.4451ZM146.095 60.5844V58.9131C146.233 58.9131 146.371 58.7738 146.508 58.7738C146.646 58.7738 146.784 58.6346 146.922 58.6346C147.06 58.4953 147.198 58.4953 147.335 58.356C147.473 58.2167 147.611 58.2167 147.749 58.0774C147.887 57.9382 148.025 57.9382 148.025 57.7989C148.162 57.6596 148.3 57.5203 148.3 57.3811C148.438 57.2418 148.576 57.1025 148.714 56.9633C148.851 56.824 148.989 56.6847 149.127 56.5455V56.4062V56.2669L146.646 52.0887L146.508 51.9494H146.646H148.576L149.954 54.1778L150.092 54.4563L150.23 54.1778L150.919 52.9243C151.057 52.6458 151.057 52.5065 151.195 52.3672C151.332 52.228 151.332 52.0887 151.332 51.9494C151.332 51.8101 151.47 51.6708 151.47 51.5316C151.47 51.3923 151.47 51.253 151.47 51.253C151.47 51.1137 151.47 51.1138 151.47 50.9745L151.332 50.8352C151.332 50.8352 151.195 50.8352 151.195 50.6959C151.057 50.6959 151.057 50.6959 150.919 50.6959H146.784H146.646V50.5566V48.8854V48.7461H146.784H152.021C152.297 48.7461 152.573 48.7461 152.711 48.7461C152.986 48.7461 153.124 48.7461 153.262 48.7461C153.4 48.7461 153.538 48.7461 153.675 48.8854C153.813 48.8854 153.813 49.0246 153.951 49.0246L154.089 49.1639L154.227 49.3032C154.227 49.3032 154.227 49.4425 154.227 49.5817C154.227 49.721 154.227 49.721 154.227 49.8603C154.227 49.9995 154.227 50.2781 154.089 50.4173C154.089 50.6959 153.951 50.9745 153.813 51.253C153.675 51.5316 153.538 51.9494 153.4 52.2279C153.262 52.6458 153.124 52.9243 152.848 53.3421C152.711 53.6207 152.711 53.7599 152.573 54.0385C152.435 54.317 152.297 54.4563 152.159 54.7349C152.021 55.0134 151.884 55.1527 151.746 55.4312C151.608 55.7098 151.47 55.9883 151.332 56.2669V56.4062V56.5455C151.47 56.6847 151.608 56.824 151.746 57.1025C151.884 57.2418 152.021 57.3811 152.159 57.5204C152.297 57.6596 152.435 57.7989 152.573 57.9382C152.711 58.0775 152.848 58.2167 152.986 58.2167H153.124C153.262 58.2167 153.262 58.356 153.4 58.356C153.538 58.356 153.538 58.4953 153.675 58.4953C153.813 58.4953 153.813 58.6346 153.951 58.6346C154.089 58.6346 154.089 58.7738 154.227 58.7738V60.4451V60.5844H154.089C153.951 60.5844 153.813 60.4451 153.675 60.4451C153.538 60.4451 153.4 60.3058 153.262 60.3058C153.124 60.3058 152.986 60.1666 152.711 60.1666C152.573 60.0273 152.435 60.0273 152.297 59.888C152.159 59.7488 152.021 59.7487 151.884 59.6095C151.746 59.4702 151.608 59.4702 151.47 59.3309L151.332 59.1917C151.195 59.0524 150.919 58.9131 150.781 58.6346C150.643 58.4953 150.368 58.2167 150.23 58.0774L150.092 57.9382L149.954 58.0774C149.678 58.2167 149.541 58.4953 149.403 58.6346C149.265 58.7739 148.989 58.9131 148.851 59.0524C148.714 59.1917 148.576 59.3309 148.438 59.4702C148.3 59.6095 148.162 59.6095 148.025 59.7488C147.887 59.888 147.749 59.888 147.611 60.0273C147.473 60.1666 147.335 60.1666 147.06 60.3058C146.922 60.3058 146.784 60.4451 146.646 60.4451C146.508 60.5844 146.371 60.5844 146.095 60.5844Z" fill="#4D4948"/>
<path fill-rule="evenodd" clip-rule="evenodd" d="M99.7856 47.2141C99.0965 42.8966 95.513 40.6682 90.827 40.2503H81.5927H80.9035V40.9467V43.4536V44.15H81.5927H88.7596C91.6539 44.15 93.7213 45.9606 93.8591 48.3282V48.4675V49.0246V51.8101C93.8591 55.7098 93.17 57.5204 89.7243 57.5204H86.2787C85.5896 57.5204 85.0383 57.2418 84.6248 56.9633C83.6601 56.1276 83.3844 54.4563 83.7979 53.2028C85.1761 49.8603 90.4135 50.6959 92.7565 52.5065V49.0246C89.8622 47.3533 86.0031 47.0748 82.9709 47.7711C81.1792 48.189 79.8009 49.3032 78.8361 50.6959C77.5957 52.3672 77.4579 54.5956 78.147 56.5455C79.3874 59.4702 82.4196 61.1415 85.7274 61.1415H89.0352C90.2756 61.1415 92.0674 60.7237 93.7213 60.0273V61.1415H99.7856V47.7711V47.2141Z" fill="#4D4948"/>
</svg>
