<?xml version="1.0" encoding="utf-8"?>
<!-- Generator: Adobe Illustrator 16.0.0, SVG Export Plug-In . SVG Version: 6.00 Build 0)  -->
<!DOCTYPE svg PUBLIC "-//W3C//DTD SVG 1.1//EN" "http://www.w3.org/Graphics/SVG/1.1/DTD/svg11.dtd">
<svg version="1.1" id="圖層_1" xmlns="http://www.w3.org/2000/svg" xmlns:xlink="http://www.w3.org/1999/xlink" x="0px" y="0px"
	 width="40px" height="40px" viewBox="0 0 40 40" enable-background="new 0 0 40 40" xml:space="preserve">
<rect fill-opacity="0" width="40" height="40"/>
<path fill="#FFFFFF" d="M31.406,28.828c1.797-1.328,2.969-3.281,2.969-5.469c0-3.984-3.906-7.188-8.672-7.188
	s-8.594,3.203-8.594,7.188s3.828,7.188,8.594,7.188c1.016,0,1.953-0.156,2.813-0.391c0.313-0.078,0.625,0,0.703,0.078l1.953,1.094
	c0.234,0.156,0.469,0,0.391-0.313l-0.469-1.719C31.094,29.063,31.25,28.906,31.406,28.828z M22.813,22.188
	c-0.174,0.046-0.355,0.051-0.531,0.016s-0.342-0.11-0.483-0.22c-0.143-0.109-0.257-0.25-0.337-0.411
	c-0.079-0.161-0.12-0.338-0.12-0.518s0.041-0.356,0.12-0.518c0.08-0.161,0.194-0.302,0.337-0.411
	c0.142-0.109,0.308-0.185,0.483-0.22c0.176-0.035,0.357-0.03,0.531,0.016c0.25,0.066,0.471,0.213,0.629,0.418
	c0.157,0.205,0.242,0.456,0.242,0.715c0,0.258-0.085,0.51-0.242,0.715C23.283,21.975,23.063,22.121,22.813,22.188z M28.594,22.188
	c-0.174,0.046-0.355,0.051-0.531,0.016s-0.342-0.11-0.483-0.22s-0.257-0.25-0.337-0.411c-0.079-0.161-0.121-0.338-0.121-0.518
	s0.042-0.356,0.121-0.518c0.08-0.161,0.195-0.302,0.337-0.411s0.308-0.185,0.483-0.22c0.176-0.035,0.357-0.03,0.531,0.016
	c0.25,0.066,0.471,0.213,0.629,0.418c0.157,0.205,0.243,0.456,0.243,0.715c0,0.258-0.086,0.51-0.243,0.715
	C29.064,21.975,28.844,22.121,28.594,22.188z"/>
<path fill="#FFFFFF" d="M16.016,8.203c-5.703,0-10.313,3.906-10.313,8.672c0,2.578,1.328,4.922,3.516,6.484
	c0.234,0.156,0.391,0.391,0.313,0.781l-0.547,1.875c-0.078,0.391,0.234,0.547,0.469,0.469l2.344-1.328
	C12.031,25,12.344,24.922,12.656,25c2.031,0.625,3.75,0.469,3.984,0.469c-1.875-6.563,4.609-10.313,9.609-10
	C25.469,11.406,21.172,8.203,16.016,8.203z M12.578,15.469c-0.207,0.05-0.422,0.052-0.63,0.006
	c-0.208-0.045-0.402-0.137-0.569-0.269c-0.167-0.131-0.302-0.299-0.395-0.491s-0.141-0.401-0.141-0.614s0.048-0.422,0.141-0.614
	s0.228-0.359,0.395-0.491c0.167-0.132,0.362-0.224,0.569-0.27c0.208-0.045,0.423-0.043,0.63,0.007
	c0.307,0.074,0.58,0.249,0.775,0.497s0.302,0.554,0.302,0.87s-0.106,0.622-0.302,0.87S12.885,15.395,12.578,15.469z M19.531,15.469
	c-0.207,0.05-0.422,0.052-0.63,0.006c-0.208-0.045-0.402-0.137-0.569-0.269c-0.167-0.131-0.302-0.299-0.395-0.491
	s-0.141-0.401-0.141-0.614s0.048-0.422,0.141-0.614s0.228-0.359,0.395-0.491c0.167-0.132,0.361-0.224,0.569-0.27
	c0.208-0.045,0.423-0.043,0.63,0.007c0.307,0.074,0.58,0.249,0.775,0.497s0.302,0.554,0.302,0.87s-0.106,0.622-0.302,0.87
	S19.838,15.395,19.531,15.469z"/>
</svg>
