<svg width="133" height="93" viewBox="0 0 133 93" fill="none" xmlns="http://www.w3.org/2000/svg">
<rect width="132.093" height="92.4976" fill="black" fill-opacity="0"/>
<path fill-rule="evenodd" clip-rule="evenodd" d="M91.9931 0C100.249 0 106.932 6.67712 106.932 14.9253C106.932 16.8892 106.539 18.853 105.753 20.6205C103.591 26.1193 97.8901 33.5819 93.7622 38.2952C92.5828 39.6699 91.4034 39.6699 90.224 38.2952C88.4549 36.3313 86.6858 33.9747 84.7202 31.4217C84.5236 31.2253 84.5236 31.2253 84.327 31.029C86.0961 28.2796 87.8652 24.941 87.8652 21.6024C87.8652 15.9072 83.5408 10.9976 77.8404 10.2121C77.8404 10.0157 77.8403 10.0157 78.0369 9.81928C80.1991 3.92771 85.703 0 91.9931 0Z" fill="#8C8C8C"/>
<path fill-rule="evenodd" clip-rule="evenodd" d="M89.0446 41.4375H94.9416C95.9245 41.4375 96.7107 42.223 96.7107 43.205V47.9182C96.7107 48.9001 95.9245 49.6857 94.9416 49.6857H89.0446C88.0618 49.6857 87.2755 48.9001 87.2755 47.9182V43.205C87.2755 42.223 88.0618 41.4375 89.0446 41.4375Z" fill="#8C8C8C"/>
<path fill-rule="evenodd" clip-rule="evenodd" d="M75.8747 10.9976C81.7717 10.9976 86.4893 15.7108 86.4893 21.6024C86.4893 22.9771 86.2927 24.3518 85.703 25.7265C84.1305 29.6542 80.0026 34.9566 77.0541 38.4915C76.2678 39.4735 75.285 39.4735 74.4987 38.4915C71.5502 35.153 67.6189 29.8506 65.8498 25.9229C65.2601 24.7446 65.0635 23.3698 65.0635 21.7988C65.2601 15.9072 69.9777 10.9976 75.8747 10.9976Z" fill="#8C8C8C"/>
<path fill-rule="evenodd" clip-rule="evenodd" d="M73.909 40.8481H77.6438C78.2335 40.8481 78.8232 41.4373 78.8232 42.0264V45.1686C78.8232 45.7577 78.2335 46.3469 77.6438 46.3469H73.909C73.3193 46.3469 72.7296 45.7577 72.7296 45.1686V42.0264C72.7296 41.4373 73.3193 40.8481 73.909 40.8481Z" fill="#8C8C8C"/>
<path fill-rule="evenodd" clip-rule="evenodd" d="M117.154 16.4966C121.282 16.4966 124.427 19.8352 124.427 23.7629C124.427 24.7448 124.23 25.7267 123.837 26.5123C122.658 29.2617 119.906 32.993 117.94 35.3496C117.35 36.1351 116.761 35.9388 116.171 35.3496C114.205 32.993 111.453 29.2617 110.274 26.7087C109.881 25.9231 109.684 24.9412 109.684 23.9593C109.684 19.8352 113.026 16.4966 117.154 16.4966Z" fill="#8C8C8C"/>
<path fill-rule="evenodd" clip-rule="evenodd" d="M115.778 37.1167H118.333C118.726 37.1167 119.119 37.5095 119.119 37.9023V40.0625C119.119 40.4553 118.726 40.8481 118.333 40.8481H115.778C115.385 40.8481 114.991 40.4553 114.991 40.0625V37.9023C114.991 37.5095 115.385 37.1167 115.778 37.1167Z" fill="#8C8C8C"/>
<path fill-rule="evenodd" clip-rule="evenodd" d="M88.0618 81.8928V53.4169V52.6313H88.8481H95.3348H96.121V53.4169V78.947C96.121 81.6964 95.7279 84.053 94.7451 86.0169C93.7622 87.9807 92.3863 89.5518 90.4206 90.7301C89.6343 91.1229 88.6515 91.5157 87.6687 91.9085C86.6858 92.1048 85.703 92.3012 84.5236 92.4976H83.5408V91.5157V88.1771V87.5879C86.8824 86.8024 88.0618 85.4277 88.0618 81.8928Z" fill="#8C8C8C"/>
<path fill-rule="evenodd" clip-rule="evenodd" d="M8.25579 60.4866H24.7674H25.5536V61.2721V64.4143V65.1998H24.7674H8.25579V78.7504V79.536H7.46953H0.982833H0V78.7504V62.0576C0 54.0058 2.94849 49.6853 10.6146 49.0962H24.7674H25.5536V49.8817V53.0239V53.8094H24.7674H12.7768C9.23863 54.0058 8.25579 56.7553 8.25579 60.4866Z" fill="#8C8C8C"/>
<path fill-rule="evenodd" clip-rule="evenodd" d="M53.073 66.9676C53.2695 67.164 53.2695 67.164 53.2695 67.164L53.4661 67.3604C53.8592 67.7531 55.2352 69.3242 55.4318 69.5206C55.8249 69.9133 56.4146 69.3242 56.8077 68.9314C57.2009 68.1459 56.8077 67.1639 56.4146 66.5748C56.218 66.3784 56.0215 65.9856 55.8249 65.7892C55.0386 64.6109 55.0386 63.8254 55.8249 62.6471C56.218 62.0579 56.8077 61.2724 57.7905 60.0941C57.9871 59.8977 58.97 58.9157 58.97 58.9157C59.3631 57.1483 60.1494 55.7736 61.3288 54.988C63.8841 53.2206 67.6189 53.8097 69.5845 56.1664C70.7639 57.7374 71.5502 59.8977 71.5502 63.0399V67.5567V78.9471V79.7326H72.3365H78.6266H79.4129V78.7507V67.3604V62.8435C79.4129 60.0941 79.0197 57.7374 78.0369 55.7736C77.0541 53.8097 75.4815 52.2386 73.5159 51.0603C68.7983 48.3109 59.5597 48.3109 55.2352 52.2387C52.8764 54.3989 51.5004 57.5411 51.3039 61.2724C51.1073 63.629 51.1073 64.6109 51.8936 65.7892C52.4833 66.182 52.4833 66.3784 53.073 66.9676ZM58.5768 73.6447C58.3803 73.2519 58.1837 73.0555 58.3803 72.6627C58.5768 72.27 58.97 72.0736 59.5597 72.0736C59.7562 72.0736 59.9528 72.27 60.1494 72.4663C60.3459 72.6627 61.7219 74.0375 61.7219 74.2339C62.3116 75.2158 60.9356 76.1977 60.3459 75.4121L58.5768 73.6447ZM61.1322 69.1278C60.9356 68.5387 61.3287 68.1459 61.7219 67.9495C62.3116 67.7531 62.5082 68.1459 62.9013 68.3423L64.2773 69.717C64.867 70.3061 64.4738 71.0917 63.8841 71.2881C63.2944 71.4845 63.0978 71.0917 62.7047 70.8953C62.5081 70.6989 62.115 70.3061 61.9185 70.1097C61.5253 69.717 61.1322 69.5206 61.1322 69.1278ZM62.3116 66.9676C62.115 66.182 62.9013 65.5929 63.6875 65.9856C63.8841 65.9856 64.867 67.164 65.0635 67.3604C65.2601 67.5567 65.6532 67.9495 65.8498 68.3423C65.8498 68.9314 65.6532 69.3242 65.2601 69.3242C64.6704 69.5206 64.4738 69.1278 64.0807 68.735L62.9013 67.5567C62.7047 67.3603 62.5082 67.164 62.3116 66.9676ZM59.5597 71.0917C59.5597 70.5025 59.7562 70.1097 60.1494 70.1097C60.7391 69.9134 61.1322 70.3061 61.3288 70.6989L62.7047 72.0736C63.2944 72.6628 62.9013 73.4483 62.3116 73.6447C61.7219 73.8411 61.5253 73.4483 61.1322 73.0555C60.7391 72.6628 60.3459 72.4664 60.1494 72.0736C59.9528 71.6808 59.7562 71.4844 59.5597 71.0917Z" fill="#8C8C8C"/>
<path fill-rule="evenodd" clip-rule="evenodd" d="M39.5099 64.8072V53.4169V52.6313H38.7236H32.4335H31.4506V53.4169V64.8072V69.3241C31.4506 72.0735 31.8438 74.4301 32.8266 76.3939C33.2197 76.9831 33.4163 77.5723 33.8094 78.1615C36.5614 82.0892 41.6721 83.4638 45.9966 83.2674C50.5176 83.0711 55.2352 81.3036 57.594 77.3759C58.1837 76.5903 58.5768 75.8048 58.7734 75.0193C58.5768 74.8229 58.5768 74.8229 58.5768 74.6265C58.3803 74.4301 57.594 73.6446 57.3974 73.4482C57.2009 73.2518 57.2009 72.859 57.2009 72.6626C57.2009 71.6807 58.1837 71.0916 58.5768 71.0916C58.5768 70.6988 58.5768 70.1096 58.97 69.7169C59.1665 69.5205 59.5597 69.3241 59.9528 69.1277C59.9528 68.9313 59.9528 68.5386 59.9528 68.3422C60.1494 67.753 60.3459 67.5566 60.739 67.3603C60.9356 67.1639 61.1322 67.1639 61.3288 67.1639C61.3288 66.7711 61.3288 66.5747 61.3288 66.3783C61.5253 65.3964 62.7047 65.0036 63.491 65.5927C63.6876 65.7891 64.0807 65.9856 64.2772 66.3783C64.4738 66.5747 64.6704 66.7711 64.6704 66.9675C64.6704 66.9675 64.6704 66.9675 64.867 67.1639L65.2601 67.5566C65.4566 67.1638 65.6532 66.5747 65.4567 66.1819C65.2601 65.5928 64.8669 65.5928 64.6704 65.3964C64.4738 65.2 64.4738 65.0036 64.4738 64.6108C64.4738 63.4325 63.491 63.4325 63.2944 63.2362C63.6875 62.2542 63.2944 60.8795 61.9185 60.8795C62.3116 59.8976 61.5253 58.9157 60.3459 59.112C59.9528 59.112 59.5597 59.5048 59.1665 59.7012L58.7734 60.094C58.5768 60.2904 58.3803 60.4868 58.3803 60.4868C58.1837 60.6832 58.1837 60.8795 57.9871 60.8795L57.2009 61.8614L57.0043 62.0578L56.8077 62.2542C55.8249 63.6289 55.6283 64.6108 56.4146 65.7891C56.6112 66.1819 56.8077 66.3783 57.2009 66.9675C58.5768 69.1277 56.218 71.4844 55.0386 70.306L53.2695 68.5385C53.073 68.3421 53.073 68.3422 53.073 68.1458C53.073 68.1458 53.073 68.1458 52.8764 67.9494L51.8936 66.9675L51.697 66.7711C51.697 66.9675 51.5004 67.753 51.697 67.9494C51.697 68.7349 51.8936 69.7168 52.0901 70.5024C52.2867 71.4843 52.2867 72.4663 52.2867 73.2518C51.8936 76.1976 49.7313 78.7506 46.1931 78.7506C42.8515 78.7506 39.7064 76.0012 39.7064 69.7169V64.8072H39.5099Z" fill="#8C8C8C"/>
<path fill-rule="evenodd" clip-rule="evenodd" d="M34.006 33.7784V35.3495H36.9545C37.3476 35.3495 37.7408 35.3495 37.9373 35.3495C38.3305 35.3495 38.7236 35.1531 39.1167 34.9567C39.7064 34.3676 40.0996 33.582 40.0996 32.6001C40.0996 30.6362 38.9202 29.6543 36.9545 29.6543H34.006V31.2254H37.1511C37.9373 31.2254 38.3305 31.8145 38.3305 32.4037C38.3305 32.9928 37.9373 33.7784 37.3476 33.7784H34.006Z" fill="#8C8C8C"/>
<path fill-rule="evenodd" clip-rule="evenodd" d="M33.4163 44.187V45.3653C33.6129 45.3653 34.006 45.1689 34.2026 45.1689C34.3991 44.9725 34.7923 44.9725 34.9888 44.7762C35.1854 44.5798 35.382 44.5797 35.7751 44.187C35.9717 43.9906 36.3648 43.5978 36.7579 43.4014L36.9545 43.205L37.1511 43.4014C37.5442 43.7942 37.7408 43.9906 38.1339 44.187C38.3305 44.3834 38.7236 44.5798 38.9202 44.7762C39.1167 44.9725 39.3133 44.9725 39.7064 45.1689C39.903 45.1689 40.0996 45.3653 40.4927 45.3653V44.187C40.2961 44.187 40.0996 43.9906 40.0996 43.9906C39.903 43.7942 39.7064 43.7942 39.5099 43.5978C39.3133 43.4014 39.1167 43.205 38.9202 43.0086C38.7236 42.8123 38.527 42.6159 38.3305 42.2231V42.0267C38.527 41.6339 38.9202 41.2412 39.1167 40.8484C39.3133 40.4557 39.5099 40.0629 39.7064 39.8665C40.0996 39.2774 40.2961 38.6882 40.2961 38.099C40.4927 37.7062 40.4927 37.3135 40.4927 37.1171C40.4927 36.9207 40.4927 36.9207 40.4927 36.7243C40.4927 36.7243 40.4927 36.5279 40.2961 36.5279C40.2961 36.5279 40.0996 36.3315 39.903 36.3315C39.7064 36.3315 39.3133 36.3315 38.9202 36.3315H34.7923V37.7063H38.1339C38.3305 37.7063 38.5271 37.7063 38.5271 37.7063C38.7236 37.7063 38.7236 37.9026 38.7236 38.099C38.7236 38.2954 38.7236 38.4918 38.5271 38.6882C38.5271 38.8846 38.3305 39.2773 38.1339 39.4737L37.5442 40.4557L37.3476 40.652L37.1511 40.4557L36.1682 38.6882H34.5957L36.5614 42.0267V42.2231C36.3648 42.4195 36.1682 42.8123 35.9717 43.0086C35.7751 43.205 35.5785 43.4014 35.382 43.5978C35.1854 43.7942 34.9888 43.7942 34.7923 43.9906C33.8094 43.9906 33.6129 44.187 33.4163 44.187Z" fill="#8C8C8C"/>
<path fill-rule="evenodd" clip-rule="evenodd" d="M27.1262 31.8145V45.3651H28.6987V42.8122V42.6158H28.8953H32.8266V41.4374H28.8953H28.6987V41.241V39.4736V39.2772H28.8953H32.8266V37.9025H28.8953H28.6987V37.7061V36.7242V36.3314V36.135V34.7603V34.5639V33.9748V31.8145C28.6987 31.6182 28.6987 31.6181 28.6987 31.4218C28.6987 31.2254 28.8953 31.2254 28.8953 31.029C28.8953 31.029 29.0918 30.8326 29.2884 30.8326C29.485 30.8326 29.485 30.8326 29.6816 30.8326H30.6644C30.861 30.8326 31.0575 30.8326 31.2541 31.029C31.4506 31.2254 31.4506 31.4218 31.4506 31.6182V33.582C31.4506 33.7784 31.4506 33.9748 31.4506 33.9748C31.4506 34.1712 31.2541 34.1712 31.2541 34.3675C31.2541 34.3675 31.0575 34.5639 30.8609 34.5639C30.6644 34.5639 30.6644 34.5639 30.4678 34.5639H29.2884V35.9387H30.2712C30.6644 35.9387 31.0575 35.9387 31.2541 35.9387C31.4506 35.9387 31.8438 35.9386 32.0403 35.7423C32.0403 35.7423 32.2369 35.7422 32.2369 35.5459L32.4335 35.3495C32.63 35.1531 32.63 34.9567 32.8266 34.7603C32.8266 34.5639 33.0232 34.3675 33.0232 34.1711V31.6182C33.0232 31.2254 33.0232 30.8326 32.8266 30.6362C32.8266 30.4398 32.63 30.2435 32.4335 30.0471C32.2369 29.8507 31.6472 29.6543 31.0575 29.6543H28.8953C28.5021 29.6543 28.3056 29.6543 28.109 29.8507C27.9125 30.0471 27.7159 30.0471 27.5193 30.4398C27.5193 30.6362 27.3227 30.6362 27.3227 31.029C27.1262 31.029 27.1262 31.4218 27.1262 31.8145Z" fill="#8C8C8C"/>
<path fill-rule="evenodd" clip-rule="evenodd" d="M24.1777 32.2073V45.3651H25.7502V31.6182C25.7502 30.2435 25.1605 29.6543 23.3914 29.6543H22.0154V31.029H22.8017C23.9811 31.029 24.1777 31.4217 24.1777 32.2073Z" fill="#8C8C8C"/>
<path fill-rule="evenodd" clip-rule="evenodd" d="M5.30729 35.9388H8.05924C8.45237 35.9388 8.84549 36.1352 8.84549 36.7243V43.205C8.84549 43.4014 8.84548 43.5978 8.64891 43.7942C8.45235 43.9906 8.25581 43.9906 8.05924 43.9906H7.27295V45.3653H8.64891C9.04205 45.3653 9.23863 45.3653 9.4352 45.1689C9.63176 45.1689 9.82834 44.9725 10.0249 44.7761C10.2215 44.5798 10.2215 44.3834 10.2215 44.3834C10.2215 44.187 10.418 43.9906 10.418 43.7942V35.9388C10.418 35.546 10.418 35.3496 10.2215 35.1532C10.0249 34.9568 9.82831 34.7605 9.63175 34.5641C9.63175 34.5641 9.43519 34.5641 9.23862 34.3677C9.04205 34.3677 8.84548 34.3677 8.64891 34.3677H5.50387V35.9388H5.30729Z" fill="#8C8C8C"/>
<path fill-rule="evenodd" clip-rule="evenodd" d="M1.76909 43.9904V45.5615C4.52102 44.776 4.91415 42.6157 4.71759 40.4555V32.2073H4.91417H10.6146V30.8326H7.07641H6.87983V30.6362V29.6543H5.30729V30.6362V30.8326H5.11074H1.57254V32.2073H2.9485H3.14508V32.4037V41.4374C3.14508 43.0085 1.96566 43.5976 1.76909 43.9904Z" fill="#8C8C8C"/>
<path fill-rule="evenodd" clip-rule="evenodd" d="M19.4601 30.6363H14.5459H13.9562H13.7597C13.17 30.6363 12.9734 30.44 12.9734 29.8508V29.458H11.4009V30.2435C11.4009 31.6182 12.1871 32.0111 13.3665 32.0111H13.5631H13.9562H16.7082H16.9047C16.9047 34.5641 16.9047 37.7062 15.3322 40.4556L15.1356 40.652L14.9391 40.4556C14.5459 39.6701 14.1528 39.0809 13.9562 38.099C13.5631 36.5279 13.17 34.7604 12.9734 33.3857H11.794C11.794 33.3857 12.1871 38.4918 14.5459 41.6339C14.1528 42.0267 13.5631 42.4195 13.17 42.8123C12.7768 43.205 12.1871 43.4014 11.5974 43.5978V44.9725C11.9905 44.7761 12.1871 44.7761 12.3837 44.5797C12.7768 44.3833 12.9734 44.3833 13.3665 44.1869C13.7597 43.9905 13.9562 43.7942 14.3494 43.5978C14.7425 43.4014 15.1356 43.0086 15.5287 42.8123C16.5116 43.7942 17.8875 44.7761 19.4601 45.1689V43.7942C18.2807 43.4014 17.4944 42.8122 16.5116 42.0267H16.315V41.8303C18.0841 38.6882 18.2807 35.7423 18.4772 32.2074V32.0111H18.6738H19.2635V30.6363H19.4601Z" fill="#8C8C8C"/>
<path fill-rule="evenodd" clip-rule="evenodd" d="M55.8249 41.2408V43.0083C56.218 42.8119 56.6111 42.4191 56.8077 42.0263C57.2008 41.6336 57.594 41.2408 57.9871 40.6517L58.1837 40.4553L58.3803 40.6517C58.7734 41.0445 59.1665 41.6336 59.5597 42.0263C59.9528 42.4191 60.3459 42.6155 60.739 43.0083V41.2408C60.3459 40.848 60.1493 40.6517 59.7562 40.2589C59.5596 39.8661 59.1665 39.6697 58.97 39.4734C59.1665 39.0806 59.3631 38.6878 59.3631 38.295C59.5597 37.9023 59.5596 37.7059 59.7562 37.5095C59.9528 37.1167 59.9528 36.9203 59.9528 36.5276C59.9528 36.1348 60.1494 35.742 60.1494 35.3492C60.3459 34.5637 60.3459 33.7782 60.3459 33.189C60.3459 32.5998 60.3459 32.0107 60.3459 31.4215C60.3459 31.2252 60.3459 30.8324 60.1494 30.636C60.1494 30.4396 59.9528 30.2432 59.7562 30.2432C59.5596 30.2432 59.5597 30.0469 59.3631 30.0469C59.1665 30.0469 58.9699 30.0469 58.7734 30.0469H55.4318V31.4215H58.1837C58.3803 31.4215 58.5768 31.4215 58.7734 31.6179C58.9699 31.8143 58.97 32.0107 58.97 32.2071C58.97 32.5998 58.97 32.9926 58.97 33.3854C58.97 33.7782 58.9699 34.3674 58.7734 34.9565C58.7734 35.3493 58.5768 35.9384 58.5768 36.3312C58.3803 36.7239 58.3803 37.3131 58.1837 37.9023L57.9871 38.295L57.7905 37.9023C57.594 37.3131 57.3974 36.5276 57.3974 35.742C57.2009 34.9565 57.2009 33.9746 57.2009 32.7963H56.0215C56.0215 33.3854 56.0215 33.9746 56.218 34.3673C56.218 34.7601 56.218 35.3493 56.4146 35.5456C56.4146 36.1348 56.6111 36.9203 56.8077 37.5095C57.0043 38.0987 57.2009 38.8842 57.3974 39.6698C57.2009 40.0625 56.8077 40.2589 56.6112 40.6517C56.218 40.8481 56.0214 41.0444 55.8249 41.2408Z" fill="#8C8C8C"/>
<path fill-rule="evenodd" clip-rule="evenodd" d="M49.3382 40.4554V41.8301H53.2695H53.4661V42.0265V43.0084H54.6455V42.0265V41.8301H54.842H55.2352V40.4554H54.842H54.6455V40.259V31.4216V31.2252H54.842H55.2352V29.8506H49.3382V31.2252H49.7313H49.9279V31.4216V40.259V40.4554H49.7313H49.3382ZM52.8764 33.1891H51.3039H51.1073V32.9928V31.618V31.4216H51.3039H53.2695H53.4661V31.618V32.6V32.9928V33.1891V34.5638V34.7602V36.7241V36.9205V38.2951V38.4915V39.0807V40.4554V40.6518H53.2695H51.3039H51.1073V40.4554V38.6879V38.4915H51.3039H52.8764V37.1168H51.3039H51.1073V36.9205V34.9566V34.7602H51.3039H52.8764V33.1891Z" fill="#8C8C8C"/>
<path fill-rule="evenodd" clip-rule="evenodd" d="M47.9622 45.5615H60.5425V44.1868H48.5519C47.176 44.1868 46.7828 43.9905 46.7828 42.8122V40.6519V40.4555H46.9794H48.5519V39.0808H46.9794H46.7828V38.8844V36.3314V36.135H46.9794H48.5519V34.7603H46.9794H46.7828V34.5639V32.6001V32.4037H46.9794H48.5519V31.029H46.9794H46.7828V30.8326V29.6543H45.4069V30.8326V31.029H45.2103H42.6549V32.4037H45.2103H45.4069V32.6001V34.5639V34.7603H45.2103H42.6549V36.135H45.2103H45.4069V36.3314V39.67V43.2049C45.6034 44.776 46.5863 45.5615 47.9622 45.5615Z" fill="#8C8C8C"/>
<path fill-rule="evenodd" clip-rule="evenodd" d="M42.6549 45.5614C44.6206 44.3831 44.6206 43.0084 44.6206 40.8481V37.9023H43.2446V42.0264C43.2446 43.0083 42.8515 43.5975 42.6549 43.9902V45.5614Z" fill="#8C8C8C"/>
<path fill-rule="evenodd" clip-rule="evenodd" d="M132.093 61.665C131.11 55.9699 126.392 53.0241 120.102 52.6313H107.915H107.129V53.4169V56.5591V57.3446H107.915H117.547C121.478 57.3446 124.23 59.7012 124.427 62.8434V63.0398V63.8253V67.3603C124.427 72.4663 123.64 74.8229 118.923 74.8229H114.402C113.419 74.8229 112.633 74.6265 112.239 74.0374C110.864 73.0554 110.47 70.6988 111.06 69.1277C112.829 64.8072 119.709 65.9856 122.854 68.3422V63.8253C118.923 61.665 113.812 61.2723 109.881 62.2542C107.522 62.8434 105.753 64.2181 104.377 65.9855C102.804 68.1458 102.608 71.0916 103.591 73.6446C105.163 77.5723 109.291 79.7325 113.615 79.7325H117.94C119.709 79.7325 121.871 79.1433 124.033 78.3578V79.7325H132.093V62.2542V61.665Z" fill="#8C8C8C"/>
</svg>
